<?xml version="1.0" encoding="utf-8" standalone="no"?>
<!DOCTYPE svg PUBLIC "-//W3C//DTD SVG 1.1//EN"
  "http://www.w3.org/Graphics/SVG/1.1/DTD/svg11.dtd">
<svg xmlns:xlink="http://www.w3.org/1999/xlink" width="864pt" height="432pt" viewBox="0 0 864 432" xmlns="http://www.w3.org/2000/svg" version="1.1">
 <metadata>
  <rdf:RDF xmlns:dc="http://purl.org/dc/elements/1.1/" xmlns:cc="http://creativecommons.org/ns#" xmlns:rdf="http://www.w3.org/1999/02/22-rdf-syntax-ns#">
   <cc:Work>
    <dc:type rdf:resource="http://purl.org/dc/dcmitype/StillImage"/>
    <dc:date>2024-05-27T11:18:07.983861</dc:date>
    <dc:format>image/svg+xml</dc:format>
    <dc:creator>
     <cc:Agent>
      <dc:title>Matplotlib v3.8.2, https://matplotlib.org/</dc:title>
     </cc:Agent>
    </dc:creator>
   </cc:Work>
  </rdf:RDF>
 </metadata>
 <defs>
  <style type="text/css">*{stroke-linejoin: round; stroke-linecap: butt}</style>
 </defs>
 <g id="figure_1">
  <g id="patch_1">
   <path d="M 0 432 
L 864 432 
L 864 0 
L 0 0 
z
" style="fill: #ffffff"/>
  </g>
  <g id="axes_1">
   <g id="patch_2">
    <path d="M 108 184.896 
L 777.6 184.896 
L 777.6 51.84 
L 108 51.84 
z
" style="fill: #ffffff"/>
   </g>
   <g id="matplotlib.axis_1">
    <g id="xtick_1">
     <g id="line2d_1">
      <path d="M 138.436364 184.896 
L 138.436364 51.84 
" clip-path="url(#p9484e1cc9b)" style="fill: none; stroke: #cccccc; stroke-width: 0.8; stroke-linecap: round"/>
     </g>
     <g id="line2d_2"/>
     <g id="text_1">
      <!-- 0 -->
      <g style="fill: #262626" transform="translate(135.655895 195.553812) scale(0.1 -0.1)">
       <defs>
        <path id="ArialMT-30" d="M 266 2259 
Q 266 3072 433 3567 
Q 600 4063 929 4331 
Q 1259 4600 1759 4600 
Q 2128 4600 2406 4451 
Q 2684 4303 2865 4023 
Q 3047 3744 3150 3342 
Q 3253 2941 3253 2259 
Q 3253 1453 3087 958 
Q 2922 463 2592 192 
Q 2263 -78 1759 -78 
Q 1097 -78 719 397 
Q 266 969 266 2259 
z
M 844 2259 
Q 844 1131 1108 757 
Q 1372 384 1759 384 
Q 2147 384 2411 759 
Q 2675 1134 2675 2259 
Q 2675 3391 2411 3762 
Q 2147 4134 1753 4134 
Q 1366 4134 1134 3806 
Q 844 3388 844 2259 
z
" transform="scale(0.015625)"/>
       </defs>
       <use xlink:href="#ArialMT-30"/>
      </g>
     </g>
    </g>
    <g id="xtick_2">
     <g id="line2d_3">
      <path d="M 262.666419 184.896 
L 262.666419 51.84 
" clip-path="url(#p9484e1cc9b)" style="fill: none; stroke: #cccccc; stroke-width: 0.8; stroke-linecap: round"/>
     </g>
     <g id="line2d_4"/>
     <g id="text_2">
      <!-- 10 -->
      <g style="fill: #262626" transform="translate(257.105482 195.553812) scale(0.1 -0.1)">
       <defs>
        <path id="ArialMT-31" d="M 2384 0 
L 1822 0 
L 1822 3584 
Q 1619 3391 1289 3197 
Q 959 3003 697 2906 
L 697 3450 
Q 1169 3672 1522 3987 
Q 1875 4303 2022 4600 
L 2384 4600 
L 2384 0 
z
" transform="scale(0.015625)"/>
       </defs>
       <use xlink:href="#ArialMT-31"/>
       <use xlink:href="#ArialMT-30" x="55.615234"/>
      </g>
     </g>
    </g>
    <g id="xtick_3">
     <g id="line2d_5">
      <path d="M 386.896475 184.896 
L 386.896475 51.84 
" clip-path="url(#p9484e1cc9b)" style="fill: none; stroke: #cccccc; stroke-width: 0.8; stroke-linecap: round"/>
     </g>
     <g id="line2d_6"/>
     <g id="text_3">
      <!-- 20 -->
      <g style="fill: #262626" transform="translate(381.335537 195.553812) scale(0.1 -0.1)">
       <defs>
        <path id="ArialMT-32" d="M 3222 541 
L 3222 0 
L 194 0 
Q 188 203 259 391 
Q 375 700 629 1000 
Q 884 1300 1366 1694 
Q 2113 2306 2375 2664 
Q 2638 3022 2638 3341 
Q 2638 3675 2398 3904 
Q 2159 4134 1775 4134 
Q 1369 4134 1125 3890 
Q 881 3647 878 3216 
L 300 3275 
Q 359 3922 746 4261 
Q 1134 4600 1788 4600 
Q 2447 4600 2831 4234 
Q 3216 3869 3216 3328 
Q 3216 3053 3103 2787 
Q 2991 2522 2730 2228 
Q 2469 1934 1863 1422 
Q 1356 997 1212 845 
Q 1069 694 975 541 
L 3222 541 
z
" transform="scale(0.015625)"/>
       </defs>
       <use xlink:href="#ArialMT-32"/>
       <use xlink:href="#ArialMT-30" x="55.615234"/>
      </g>
     </g>
    </g>
    <g id="xtick_4">
     <g id="line2d_7">
      <path d="M 511.126531 184.896 
L 511.126531 51.84 
" clip-path="url(#p9484e1cc9b)" style="fill: none; stroke: #cccccc; stroke-width: 0.8; stroke-linecap: round"/>
     </g>
     <g id="line2d_8"/>
     <g id="text_4">
      <!-- 30 -->
      <g style="fill: #262626" transform="translate(505.565593 195.553812) scale(0.1 -0.1)">
       <defs>
        <path id="ArialMT-33" d="M 269 1209 
L 831 1284 
Q 928 806 1161 595 
Q 1394 384 1728 384 
Q 2125 384 2398 659 
Q 2672 934 2672 1341 
Q 2672 1728 2419 1979 
Q 2166 2231 1775 2231 
Q 1616 2231 1378 2169 
L 1441 2663 
Q 1497 2656 1531 2656 
Q 1891 2656 2178 2843 
Q 2466 3031 2466 3422 
Q 2466 3731 2256 3934 
Q 2047 4138 1716 4138 
Q 1388 4138 1169 3931 
Q 950 3725 888 3313 
L 325 3413 
Q 428 3978 793 4289 
Q 1159 4600 1703 4600 
Q 2078 4600 2393 4439 
Q 2709 4278 2876 4000 
Q 3044 3722 3044 3409 
Q 3044 3113 2884 2869 
Q 2725 2625 2413 2481 
Q 2819 2388 3044 2092 
Q 3269 1797 3269 1353 
Q 3269 753 2831 336 
Q 2394 -81 1725 -81 
Q 1122 -81 723 278 
Q 325 638 269 1209 
z
" transform="scale(0.015625)"/>
       </defs>
       <use xlink:href="#ArialMT-33"/>
       <use xlink:href="#ArialMT-30" x="55.615234"/>
      </g>
     </g>
    </g>
    <g id="xtick_5">
     <g id="line2d_9">
      <path d="M 635.356586 184.896 
L 635.356586 51.84 
" clip-path="url(#p9484e1cc9b)" style="fill: none; stroke: #cccccc; stroke-width: 0.8; stroke-linecap: round"/>
     </g>
     <g id="line2d_10"/>
     <g id="text_5">
      <!-- 40 -->
      <g style="fill: #262626" transform="translate(629.795649 195.553812) scale(0.1 -0.1)">
       <defs>
        <path id="ArialMT-34" d="M 2069 0 
L 2069 1097 
L 81 1097 
L 81 1613 
L 2172 4581 
L 2631 4581 
L 2631 1613 
L 3250 1613 
L 3250 1097 
L 2631 1097 
L 2631 0 
L 2069 0 
z
M 2069 1613 
L 2069 3678 
L 634 1613 
L 2069 1613 
z
" transform="scale(0.015625)"/>
       </defs>
       <use xlink:href="#ArialMT-34"/>
       <use xlink:href="#ArialMT-30" x="55.615234"/>
      </g>
     </g>
    </g>
    <g id="xtick_6">
     <g id="line2d_11">
      <path d="M 759.586642 184.896 
L 759.586642 51.84 
" clip-path="url(#p9484e1cc9b)" style="fill: none; stroke: #cccccc; stroke-width: 0.8; stroke-linecap: round"/>
     </g>
     <g id="line2d_12"/>
     <g id="text_6">
      <!-- 50 -->
      <g style="fill: #262626" transform="translate(754.025704 195.553812) scale(0.1 -0.1)">
       <defs>
        <path id="ArialMT-35" d="M 266 1200 
L 856 1250 
Q 922 819 1161 601 
Q 1400 384 1738 384 
Q 2144 384 2425 690 
Q 2706 997 2706 1503 
Q 2706 1984 2436 2262 
Q 2166 2541 1728 2541 
Q 1456 2541 1237 2417 
Q 1019 2294 894 2097 
L 366 2166 
L 809 4519 
L 3088 4519 
L 3088 3981 
L 1259 3981 
L 1013 2750 
Q 1425 3038 1878 3038 
Q 2478 3038 2890 2622 
Q 3303 2206 3303 1553 
Q 3303 931 2941 478 
Q 2500 -78 1738 -78 
Q 1113 -78 717 272 
Q 322 622 266 1200 
z
" transform="scale(0.015625)"/>
       </defs>
       <use xlink:href="#ArialMT-35"/>
       <use xlink:href="#ArialMT-30" x="55.615234"/>
      </g>
     </g>
    </g>
    <g id="text_7">
     <!-- Epochs -->
     <g style="fill: #262626" transform="translate(426.123438 208.699125) scale(0.1 -0.1)">
      <defs>
       <path id="ArialMT-45" d="M 506 0 
L 506 4581 
L 3819 4581 
L 3819 4041 
L 1113 4041 
L 1113 2638 
L 3647 2638 
L 3647 2100 
L 1113 2100 
L 1113 541 
L 3925 541 
L 3925 0 
L 506 0 
z
" transform="scale(0.015625)"/>
       <path id="ArialMT-70" d="M 422 -1272 
L 422 3319 
L 934 3319 
L 934 2888 
Q 1116 3141 1344 3267 
Q 1572 3394 1897 3394 
Q 2322 3394 2647 3175 
Q 2972 2956 3137 2557 
Q 3303 2159 3303 1684 
Q 3303 1175 3120 767 
Q 2938 359 2589 142 
Q 2241 -75 1856 -75 
Q 1575 -75 1351 44 
Q 1128 163 984 344 
L 984 -1272 
L 422 -1272 
z
M 931 1641 
Q 931 1000 1190 694 
Q 1450 388 1819 388 
Q 2194 388 2461 705 
Q 2728 1022 2728 1688 
Q 2728 2322 2467 2637 
Q 2206 2953 1844 2953 
Q 1484 2953 1207 2617 
Q 931 2281 931 1641 
z
" transform="scale(0.015625)"/>
       <path id="ArialMT-6f" d="M 213 1659 
Q 213 2581 725 3025 
Q 1153 3394 1769 3394 
Q 2453 3394 2887 2945 
Q 3322 2497 3322 1706 
Q 3322 1066 3130 698 
Q 2938 331 2570 128 
Q 2203 -75 1769 -75 
Q 1072 -75 642 372 
Q 213 819 213 1659 
z
M 791 1659 
Q 791 1022 1069 705 
Q 1347 388 1769 388 
Q 2188 388 2466 706 
Q 2744 1025 2744 1678 
Q 2744 2294 2464 2611 
Q 2184 2928 1769 2928 
Q 1347 2928 1069 2612 
Q 791 2297 791 1659 
z
" transform="scale(0.015625)"/>
       <path id="ArialMT-63" d="M 2588 1216 
L 3141 1144 
Q 3050 572 2676 248 
Q 2303 -75 1759 -75 
Q 1078 -75 664 370 
Q 250 816 250 1647 
Q 250 2184 428 2587 
Q 606 2991 970 3192 
Q 1334 3394 1763 3394 
Q 2303 3394 2647 3120 
Q 2991 2847 3088 2344 
L 2541 2259 
Q 2463 2594 2264 2762 
Q 2066 2931 1784 2931 
Q 1359 2931 1093 2626 
Q 828 2322 828 1663 
Q 828 994 1084 691 
Q 1341 388 1753 388 
Q 2084 388 2306 591 
Q 2528 794 2588 1216 
z
" transform="scale(0.015625)"/>
       <path id="ArialMT-68" d="M 422 0 
L 422 4581 
L 984 4581 
L 984 2938 
Q 1378 3394 1978 3394 
Q 2347 3394 2619 3248 
Q 2891 3103 3008 2847 
Q 3125 2591 3125 2103 
L 3125 0 
L 2563 0 
L 2563 2103 
Q 2563 2525 2380 2717 
Q 2197 2909 1863 2909 
Q 1613 2909 1392 2779 
Q 1172 2650 1078 2428 
Q 984 2206 984 1816 
L 984 0 
L 422 0 
z
" transform="scale(0.015625)"/>
       <path id="ArialMT-73" d="M 197 991 
L 753 1078 
Q 800 744 1014 566 
Q 1228 388 1613 388 
Q 2000 388 2187 545 
Q 2375 703 2375 916 
Q 2375 1106 2209 1216 
Q 2094 1291 1634 1406 
Q 1016 1563 777 1677 
Q 538 1791 414 1992 
Q 291 2194 291 2438 
Q 291 2659 392 2848 
Q 494 3038 669 3163 
Q 800 3259 1026 3326 
Q 1253 3394 1513 3394 
Q 1903 3394 2198 3281 
Q 2494 3169 2634 2976 
Q 2775 2784 2828 2463 
L 2278 2388 
Q 2241 2644 2061 2787 
Q 1881 2931 1553 2931 
Q 1166 2931 1000 2803 
Q 834 2675 834 2503 
Q 834 2394 903 2306 
Q 972 2216 1119 2156 
Q 1203 2125 1616 2013 
Q 2213 1853 2448 1751 
Q 2684 1650 2818 1456 
Q 2953 1263 2953 975 
Q 2953 694 2789 445 
Q 2625 197 2315 61 
Q 2006 -75 1616 -75 
Q 969 -75 630 194 
Q 291 463 197 991 
z
" transform="scale(0.015625)"/>
      </defs>
      <use xlink:href="#ArialMT-45"/>
      <use xlink:href="#ArialMT-70" x="66.699219"/>
      <use xlink:href="#ArialMT-6f" x="122.314453"/>
      <use xlink:href="#ArialMT-63" x="177.929688"/>
      <use xlink:href="#ArialMT-68" x="227.929688"/>
      <use xlink:href="#ArialMT-73" x="283.544922"/>
     </g>
    </g>
   </g>
   <g id="matplotlib.axis_2">
    <g id="ytick_1">
     <g id="line2d_13">
      <path d="M 108 174.013598 
L 777.6 174.013598 
" clip-path="url(#p9484e1cc9b)" style="fill: none; stroke: #cccccc; stroke-width: 0.8; stroke-linecap: round"/>
     </g>
     <g id="line2d_14"/>
     <g id="text_8">
      <!-- 0.5 -->
      <g style="fill: #262626" transform="translate(90.6 177.592504) scale(0.1 -0.1)">
       <defs>
        <path id="ArialMT-2e" d="M 581 0 
L 581 641 
L 1222 641 
L 1222 0 
L 581 0 
z
" transform="scale(0.015625)"/>
       </defs>
       <use xlink:href="#ArialMT-30"/>
       <use xlink:href="#ArialMT-2e" x="55.615234"/>
       <use xlink:href="#ArialMT-35" x="83.398438"/>
      </g>
     </g>
    </g>
    <g id="ytick_2">
     <g id="line2d_15">
      <path d="M 108 145.697533 
L 777.6 145.697533 
" clip-path="url(#p9484e1cc9b)" style="fill: none; stroke: #cccccc; stroke-width: 0.8; stroke-linecap: round"/>
     </g>
     <g id="line2d_16"/>
     <g id="text_9">
      <!-- 0.6 -->
      <g style="fill: #262626" transform="translate(90.6 149.27644) scale(0.1 -0.1)">
       <defs>
        <path id="ArialMT-36" d="M 3184 3459 
L 2625 3416 
Q 2550 3747 2413 3897 
Q 2184 4138 1850 4138 
Q 1581 4138 1378 3988 
Q 1113 3794 959 3422 
Q 806 3050 800 2363 
Q 1003 2672 1297 2822 
Q 1591 2972 1913 2972 
Q 2475 2972 2870 2558 
Q 3266 2144 3266 1488 
Q 3266 1056 3080 686 
Q 2894 316 2569 119 
Q 2244 -78 1831 -78 
Q 1128 -78 684 439 
Q 241 956 241 2144 
Q 241 3472 731 4075 
Q 1159 4600 1884 4600 
Q 2425 4600 2770 4297 
Q 3116 3994 3184 3459 
z
M 888 1484 
Q 888 1194 1011 928 
Q 1134 663 1356 523 
Q 1578 384 1822 384 
Q 2178 384 2434 671 
Q 2691 959 2691 1453 
Q 2691 1928 2437 2201 
Q 2184 2475 1800 2475 
Q 1419 2475 1153 2201 
Q 888 1928 888 1484 
z
" transform="scale(0.015625)"/>
       </defs>
       <use xlink:href="#ArialMT-30"/>
       <use xlink:href="#ArialMT-2e" x="55.615234"/>
       <use xlink:href="#ArialMT-36" x="83.398438"/>
      </g>
     </g>
    </g>
    <g id="ytick_3">
     <g id="line2d_17">
      <path d="M 108 117.381468 
L 777.6 117.381468 
" clip-path="url(#p9484e1cc9b)" style="fill: none; stroke: #cccccc; stroke-width: 0.8; stroke-linecap: round"/>
     </g>
     <g id="line2d_18"/>
     <g id="text_10">
      <!-- 0.7 -->
      <g style="fill: #262626" transform="translate(90.6 120.960375) scale(0.1 -0.1)">
       <defs>
        <path id="ArialMT-37" d="M 303 3981 
L 303 4522 
L 3269 4522 
L 3269 4084 
Q 2831 3619 2401 2847 
Q 1972 2075 1738 1259 
Q 1569 684 1522 0 
L 944 0 
Q 953 541 1156 1306 
Q 1359 2072 1739 2783 
Q 2119 3494 2547 3981 
L 303 3981 
z
" transform="scale(0.015625)"/>
       </defs>
       <use xlink:href="#ArialMT-30"/>
       <use xlink:href="#ArialMT-2e" x="55.615234"/>
       <use xlink:href="#ArialMT-37" x="83.398438"/>
      </g>
     </g>
    </g>
    <g id="ytick_4">
     <g id="line2d_19">
      <path d="M 108 89.065403 
L 777.6 89.065403 
" clip-path="url(#p9484e1cc9b)" style="fill: none; stroke: #cccccc; stroke-width: 0.8; stroke-linecap: round"/>
     </g>
     <g id="line2d_20"/>
     <g id="text_11">
      <!-- 0.8 -->
      <g style="fill: #262626" transform="translate(90.6 92.64431) scale(0.1 -0.1)">
       <defs>
        <path id="ArialMT-38" d="M 1131 2484 
Q 781 2613 612 2850 
Q 444 3088 444 3419 
Q 444 3919 803 4259 
Q 1163 4600 1759 4600 
Q 2359 4600 2725 4251 
Q 3091 3903 3091 3403 
Q 3091 3084 2923 2848 
Q 2756 2613 2416 2484 
Q 2838 2347 3058 2040 
Q 3278 1734 3278 1309 
Q 3278 722 2862 322 
Q 2447 -78 1769 -78 
Q 1091 -78 675 323 
Q 259 725 259 1325 
Q 259 1772 486 2073 
Q 713 2375 1131 2484 
z
M 1019 3438 
Q 1019 3113 1228 2906 
Q 1438 2700 1772 2700 
Q 2097 2700 2305 2904 
Q 2513 3109 2513 3406 
Q 2513 3716 2298 3927 
Q 2084 4138 1766 4138 
Q 1444 4138 1231 3931 
Q 1019 3725 1019 3438 
z
M 838 1322 
Q 838 1081 952 856 
Q 1066 631 1291 507 
Q 1516 384 1775 384 
Q 2178 384 2440 643 
Q 2703 903 2703 1303 
Q 2703 1709 2433 1975 
Q 2163 2241 1756 2241 
Q 1359 2241 1098 1978 
Q 838 1716 838 1322 
z
" transform="scale(0.015625)"/>
       </defs>
       <use xlink:href="#ArialMT-30"/>
       <use xlink:href="#ArialMT-2e" x="55.615234"/>
       <use xlink:href="#ArialMT-38" x="83.398438"/>
      </g>
     </g>
    </g>
    <g id="ytick_5">
     <g id="line2d_21">
      <path d="M 108 60.749338 
L 777.6 60.749338 
" clip-path="url(#p9484e1cc9b)" style="fill: none; stroke: #cccccc; stroke-width: 0.8; stroke-linecap: round"/>
     </g>
     <g id="line2d_22"/>
     <g id="text_12">
      <!-- 0.9 -->
      <g style="fill: #262626" transform="translate(90.6 64.328245) scale(0.1 -0.1)">
       <defs>
        <path id="ArialMT-39" d="M 350 1059 
L 891 1109 
Q 959 728 1153 556 
Q 1347 384 1650 384 
Q 1909 384 2104 503 
Q 2300 622 2425 820 
Q 2550 1019 2634 1356 
Q 2719 1694 2719 2044 
Q 2719 2081 2716 2156 
Q 2547 1888 2255 1720 
Q 1963 1553 1622 1553 
Q 1053 1553 659 1965 
Q 266 2378 266 3053 
Q 266 3750 677 4175 
Q 1088 4600 1706 4600 
Q 2153 4600 2523 4359 
Q 2894 4119 3086 3673 
Q 3278 3228 3278 2384 
Q 3278 1506 3087 986 
Q 2897 466 2520 194 
Q 2144 -78 1638 -78 
Q 1100 -78 759 220 
Q 419 519 350 1059 
z
M 2653 3081 
Q 2653 3566 2395 3850 
Q 2138 4134 1775 4134 
Q 1400 4134 1122 3828 
Q 844 3522 844 3034 
Q 844 2597 1108 2323 
Q 1372 2050 1759 2050 
Q 2150 2050 2401 2323 
Q 2653 2597 2653 3081 
z
" transform="scale(0.015625)"/>
       </defs>
       <use xlink:href="#ArialMT-30"/>
       <use xlink:href="#ArialMT-2e" x="55.615234"/>
       <use xlink:href="#ArialMT-39" x="83.398438"/>
      </g>
     </g>
    </g>
    <g id="text_13">
     <!-- Accuracy -->
     <g style="fill: #262626" transform="translate(84.495312 138.928937) rotate(-90) scale(0.1 -0.1)">
      <defs>
       <path id="ArialMT-41" d="M -9 0 
L 1750 4581 
L 2403 4581 
L 4278 0 
L 3588 0 
L 3053 1388 
L 1138 1388 
L 634 0 
L -9 0 
z
M 1313 1881 
L 2866 1881 
L 2388 3150 
Q 2169 3728 2063 4100 
Q 1975 3659 1816 3225 
L 1313 1881 
z
" transform="scale(0.015625)"/>
       <path id="ArialMT-75" d="M 2597 0 
L 2597 488 
Q 2209 -75 1544 -75 
Q 1250 -75 995 37 
Q 741 150 617 320 
Q 494 491 444 738 
Q 409 903 409 1263 
L 409 3319 
L 972 3319 
L 972 1478 
Q 972 1038 1006 884 
Q 1059 663 1231 536 
Q 1403 409 1656 409 
Q 1909 409 2131 539 
Q 2353 669 2445 892 
Q 2538 1116 2538 1541 
L 2538 3319 
L 3100 3319 
L 3100 0 
L 2597 0 
z
" transform="scale(0.015625)"/>
       <path id="ArialMT-72" d="M 416 0 
L 416 3319 
L 922 3319 
L 922 2816 
Q 1116 3169 1280 3281 
Q 1444 3394 1641 3394 
Q 1925 3394 2219 3213 
L 2025 2691 
Q 1819 2813 1613 2813 
Q 1428 2813 1281 2702 
Q 1134 2591 1072 2394 
Q 978 2094 978 1738 
L 978 0 
L 416 0 
z
" transform="scale(0.015625)"/>
       <path id="ArialMT-61" d="M 2588 409 
Q 2275 144 1986 34 
Q 1697 -75 1366 -75 
Q 819 -75 525 192 
Q 231 459 231 875 
Q 231 1119 342 1320 
Q 453 1522 633 1644 
Q 813 1766 1038 1828 
Q 1203 1872 1538 1913 
Q 2219 1994 2541 2106 
Q 2544 2222 2544 2253 
Q 2544 2597 2384 2738 
Q 2169 2928 1744 2928 
Q 1347 2928 1158 2789 
Q 969 2650 878 2297 
L 328 2372 
Q 403 2725 575 2942 
Q 747 3159 1072 3276 
Q 1397 3394 1825 3394 
Q 2250 3394 2515 3294 
Q 2781 3194 2906 3042 
Q 3031 2891 3081 2659 
Q 3109 2516 3109 2141 
L 3109 1391 
Q 3109 606 3145 398 
Q 3181 191 3288 0 
L 2700 0 
Q 2613 175 2588 409 
z
M 2541 1666 
Q 2234 1541 1622 1453 
Q 1275 1403 1131 1340 
Q 988 1278 909 1158 
Q 831 1038 831 891 
Q 831 666 1001 516 
Q 1172 366 1500 366 
Q 1825 366 2078 508 
Q 2331 650 2450 897 
Q 2541 1088 2541 1459 
L 2541 1666 
z
" transform="scale(0.015625)"/>
       <path id="ArialMT-79" d="M 397 -1278 
L 334 -750 
Q 519 -800 656 -800 
Q 844 -800 956 -737 
Q 1069 -675 1141 -563 
Q 1194 -478 1313 -144 
Q 1328 -97 1363 -6 
L 103 3319 
L 709 3319 
L 1400 1397 
Q 1534 1031 1641 628 
Q 1738 1016 1872 1384 
L 2581 3319 
L 3144 3319 
L 1881 -56 
Q 1678 -603 1566 -809 
Q 1416 -1088 1222 -1217 
Q 1028 -1347 759 -1347 
Q 597 -1347 397 -1278 
z
" transform="scale(0.015625)"/>
      </defs>
      <use xlink:href="#ArialMT-41"/>
      <use xlink:href="#ArialMT-63" x="66.699219"/>
      <use xlink:href="#ArialMT-63" x="116.699219"/>
      <use xlink:href="#ArialMT-75" x="166.699219"/>
      <use xlink:href="#ArialMT-72" x="222.314453"/>
      <use xlink:href="#ArialMT-61" x="255.615234"/>
      <use xlink:href="#ArialMT-63" x="311.230469"/>
      <use xlink:href="#ArialMT-79" x="361.230469"/>
     </g>
    </g>
   </g>
   <g id="line2d_23">
    <path d="M 138.436364 115.605485 
L 150.859369 110.376357 
L 163.282375 59.466621 
L 175.70538 60.05871 
L 188.128386 61.73587 
L 200.551391 60.847878 
L 212.974397 63.018588 
L 225.397403 61.439967 
L 237.820408 60.946701 
L 250.243414 61.73587 
L 262.666419 61.63733 
L 275.089425 60.551975 
L 287.51243 60.946701 
L 299.935436 62.426499 
L 312.358442 61.834693 
L 324.781447 61.73587 
L 337.204453 61.242604 
L 349.627458 59.072178 
L 362.050464 62.032056 
L 374.473469 63.709217 
L 386.896475 60.847878 
L 399.319481 60.05871 
L 411.742486 60.946701 
L 424.165492 58.775992 
L 436.588497 60.551975 
L 449.011503 59.96017 
L 461.434508 61.045241 
L 473.857514 58.480089 
L 486.280519 61.933233 
L 498.703525 60.847878 
L 511.126531 61.834693 
L 523.549536 62.032056 
L 535.972542 61.341427 
L 548.395547 61.73587 
L 560.818553 61.73587 
L 573.241558 60.749338 
L 585.664564 61.834693 
L 598.08757 61.045241 
L 610.510575 61.439967 
L 622.933581 61.341427 
L 635.356586 61.144064 
L 647.779592 61.63733 
L 660.202597 61.73587 
L 672.625603 61.63733 
L 685.048609 59.466621 
L 697.471614 61.242604 
L 709.89462 57.888 
L 722.317625 60.749338 
L 734.740631 58.874815 
L 747.163636 59.368081 
" clip-path="url(#p9484e1cc9b)" style="fill: none; stroke: #1f77b4; stroke-width: 1.5; stroke-linecap: round"/>
   </g>
   <g id="line2d_24">
    <path d="M 138.436364 171.349623 
L 150.859369 175.394856 
L 163.282375 175.888122 
L 175.70538 177.368202 
L 188.128386 178.848 
L 200.551391 176.381388 
L 212.974397 176.973476 
L 225.397403 175.00013 
L 237.820408 176.776114 
L 250.243414 177.269379 
L 262.666419 176.085485 
L 275.089425 177.861468 
L 287.51243 175.493396 
L 299.935436 177.466742 
L 312.358442 177.072016 
L 324.781447 176.973476 
L 337.204453 175.296316 
L 349.627458 176.184308 
L 362.050464 175.394856 
L 374.473469 176.282848 
L 386.896475 176.085485 
L 399.319481 176.973476 
L 411.742486 176.578751 
L 424.165492 177.269379 
L 436.588497 177.072016 
L 449.011503 178.157371 
L 461.434508 178.058831 
L 473.857514 175.690759 
L 486.280519 177.368202 
L 498.703525 175.690759 
L 511.126531 175.986945 
L 523.549536 175.789582 
L 535.972542 176.973476 
L 548.395547 175.197493 
L 560.818553 177.565565 
L 573.241558 178.74946 
L 585.664564 176.776114 
L 598.08757 176.874937 
L 610.510575 177.368202 
L 622.933581 177.565565 
L 635.356586 175.394856 
L 647.779592 178.74946 
L 660.202597 176.677574 
L 672.625603 175.296316 
L 685.048609 178.848 
L 697.471614 177.960008 
L 709.89462 177.269379 
L 722.317625 177.368202 
L 734.740631 178.157371 
L 747.163636 177.368202 
" clip-path="url(#p9484e1cc9b)" style="fill: none; stroke: #ff7f0e; stroke-width: 1.5; stroke-linecap: round"/>
   </g>
   <g id="line2d_25">
    <path d="M 138.436364 103.667432 
L 150.859369 128.925079 
L 163.282375 145.598993 
L 175.70538 145.894896 
L 188.128386 141.948486 
L 200.551391 150.433395 
L 212.974397 157.04378 
L 225.397403 152.900008 
L 237.820408 155.5637 
L 250.243414 153.393273 
L 262.666419 151.321387 
L 275.089425 155.958426 
L 287.51243 159.51011 
L 299.935436 160.003659 
L 312.358442 165.035424 
L 324.781447 169.475099 
L 337.204453 167.20585 
L 349.627458 170.560454 
L 362.050464 172.040252 
L 374.473469 172.040252 
L 386.896475 171.546986 
L 399.319481 174.013598 
L 411.742486 175.592219 
L 424.165492 175.592219 
L 436.588497 175.690759 
L 449.011503 175.493396 
L 461.434508 176.085485 
L 473.857514 176.480211 
L 486.280519 176.085485 
L 498.703525 175.690759 
L 511.126531 176.381388 
L 523.549536 176.480211 
L 535.972542 176.480211 
L 548.395547 176.578751 
L 560.818553 176.578751 
L 573.241558 176.480211 
L 585.664564 176.578751 
L 598.08757 176.677574 
L 610.510575 176.677574 
L 622.933581 176.776114 
L 635.356586 176.381388 
L 647.779592 176.085485 
L 660.202597 175.493396 
L 672.625603 169.376559 
L 685.048609 165.824592 
L 697.471614 165.627229 
L 709.89462 159.016844 
L 722.317625 153.393273 
L 734.740631 142.737655 
L 747.163636 144.612178 
" clip-path="url(#p9484e1cc9b)" style="fill: none; stroke: #2ca02c; stroke-width: 1.5; stroke-linecap: round"/>
   </g>
   <g id="line2d_26">
    <path d="M 138.436364 154.379805 
L 150.859369 172.533801 
L 163.282375 173.717695 
L 175.70538 174.802767 
L 188.128386 175.296316 
L 200.551391 174.210961 
L 212.974397 173.915058 
L 225.397403 174.013598 
L 237.820408 174.704227 
L 250.243414 174.704227 
L 262.666419 175.394856 
L 275.089425 175.789582 
L 287.51243 174.802767 
L 299.935436 174.802767 
L 312.358442 174.210961 
L 324.781447 175.394856 
L 337.204453 174.210961 
L 349.627458 174.802767 
L 362.050464 174.408324 
L 374.473469 175.296316 
L 386.896475 175.00013 
L 399.319481 175.197493 
L 411.742486 175.394856 
L 424.165492 174.506864 
L 436.588497 174.408324 
L 449.011503 174.605687 
L 461.434508 175.789582 
L 473.857514 175.197493 
L 486.280519 175.098953 
L 498.703525 174.802767 
L 511.126531 175.098953 
L 523.549536 174.704227 
L 535.972542 175.296316 
L 548.395547 175.394856 
L 560.818553 175.296316 
L 573.241558 174.704227 
L 585.664564 174.802767 
L 598.08757 175.00013 
L 610.510575 175.690759 
L 622.933581 175.197493 
L 635.356586 175.493396 
L 647.779592 175.789582 
L 660.202597 175.592219 
L 672.625603 175.690759 
L 685.048609 175.789582 
L 697.471614 176.282848 
L 709.89462 175.197493 
L 722.317625 175.888122 
L 734.740631 176.184308 
L 747.163636 175.493396 
" clip-path="url(#p9484e1cc9b)" style="fill: none; stroke: #d62728; stroke-width: 1.5; stroke-linecap: round"/>
   </g>
   <g id="line2d_27">
    <path d="M 138.436364 96.56378 
L 150.859369 113.336235 
L 163.282375 131.490231 
L 175.70538 135.634004 
L 188.128386 136.02873 
L 200.551391 138.297979 
L 212.974397 138.593882 
L 225.397403 137.311164 
L 237.820408 140.961671 
L 250.243414 138.988608 
L 262.666419 136.423173 
L 275.089425 136.916722 
L 287.51243 137.212624 
L 299.935436 137.508527 
L 312.358442 134.153923 
L 324.781447 143.033558 
L 337.204453 144.217736 
L 349.627458 142.639115 
L 362.050464 143.033558 
L 374.473469 145.006904 
L 386.896475 142.935018 
L 399.319481 144.612178 
L 411.742486 143.82301 
L 424.165492 142.836195 
L 436.588497 141.454937 
L 449.011503 140.961671 
L 461.434508 140.567229 
L 473.857514 141.6523 
L 486.280519 142.639115 
L 498.703525 140.271043 
L 511.126531 143.230921 
L 523.549536 143.132381 
L 535.972542 140.468406 
L 548.395547 137.113801 
L 560.818553 137.113801 
L 573.241558 135.140738 
L 585.664564 137.60735 
L 598.08757 132.772665 
L 610.510575 134.943375 
L 622.933581 138.297979 
L 635.356586 136.324633 
L 647.779592 135.634004 
L 660.202597 137.212624 
L 672.625603 137.903253 
L 685.048609 137.212624 
L 697.471614 141.55376 
L 709.89462 142.145566 
L 722.317625 141.751123 
L 734.740631 143.230921 
L 747.163636 141.060494 
" clip-path="url(#p9484e1cc9b)" style="fill: none; stroke: #9467bd; stroke-width: 1.5; stroke-linecap: round"/>
   </g>
   <g id="line2d_28">
    <path d="M 138.436364 170.560454 
L 150.859369 171.448446 
L 163.282375 171.448446 
L 175.70538 171.448446 
L 188.128386 171.448446 
L 200.551391 171.448446 
L 212.974397 171.448446 
L 225.397403 171.448446 
L 237.820408 171.448446 
L 250.243414 171.448446 
L 262.666419 171.448446 
L 275.089425 171.448446 
L 287.51243 171.448446 
L 299.935436 171.448446 
L 312.358442 171.448446 
L 324.781447 171.448446 
L 337.204453 171.448446 
L 349.627458 171.448446 
L 362.050464 171.448446 
L 374.473469 171.448446 
L 386.896475 171.448446 
L 399.319481 171.448446 
L 411.742486 171.448446 
L 424.165492 171.448446 
L 436.588497 171.448446 
L 449.011503 171.448446 
L 461.434508 171.448446 
L 473.857514 171.448446 
L 486.280519 171.448446 
L 498.703525 171.448446 
L 511.126531 171.448446 
L 523.549536 171.448446 
L 535.972542 171.448446 
L 548.395547 171.349623 
L 560.818553 171.448446 
L 573.241558 171.448446 
L 585.664564 171.15226 
L 598.08757 171.448446 
L 610.510575 171.349623 
L 622.933581 171.448446 
L 635.356586 171.349623 
L 647.779592 171.349623 
L 660.202597 172.533801 
L 672.625603 170.560454 
L 685.048609 173.421509 
L 697.471614 171.05372 
L 709.89462 170.856357 
L 722.317625 171.842889 
L 734.740631 172.533801 
L 747.163636 172.237615 
" clip-path="url(#p9484e1cc9b)" style="fill: none; stroke: #8c564b; stroke-width: 1.5; stroke-linecap: round"/>
   </g>
   <g id="line2d_29">
    <path d="M 138.436364 104.259521 
L 150.859369 128.037087 
L 163.282375 132.871488 
L 175.70538 130.799602 
L 188.128386 133.463294 
L 200.551391 131.983497 
L 212.974397 131.095505 
L 225.397403 132.871488 
L 237.820408 131.292868 
L 250.243414 137.409987 
L 262.666419 134.351286 
L 275.089425 134.351286 
L 287.51243 133.364754 
L 299.935436 134.055383 
L 312.358442 132.674126 
L 324.781447 130.996965 
L 337.204453 131.292868 
L 349.627458 131.687594 
L 362.050464 133.068851 
L 374.473469 131.194045 
L 386.896475 132.575586 
L 399.319481 132.575586 
L 411.742486 133.068851 
L 424.165492 132.2794 
L 436.588497 132.476763 
L 449.011503 133.956843 
L 461.434508 132.18086 
L 473.857514 134.548649 
L 486.280519 135.239278 
L 498.703525 138.396519 
L 511.126531 138.988608 
L 523.549536 137.212624 
L 535.972542 141.948486 
L 548.395547 140.863131 
L 560.818553 144.711002 
L 573.241558 144.513639 
L 585.664564 145.796073 
L 598.08757 152.110556 
L 610.510575 152.406459 
L 622.933581 151.913193 
L 635.356586 154.774531 
L 647.779592 157.832949 
L 660.202597 159.214207 
L 672.625603 161.286093 
L 685.048609 161.384916 
L 697.471614 160.398102 
L 709.89462 159.51011 
L 722.317625 159.608933 
L 734.740631 161.582279 
L 747.163636 157.931772 
" clip-path="url(#p9484e1cc9b)" style="fill: none; stroke: #e377c2; stroke-width: 1.5; stroke-linecap: round"/>
   </g>
   <g id="line2d_30">
    <path d="M 138.436364 142.244389 
L 150.859369 142.441752 
L 163.282375 164.640698 
L 175.70538 165.232786 
L 188.128386 164.443335 
L 200.551391 165.923415 
L 212.974397 163.25944 
L 225.397403 165.133963 
L 237.820408 165.232786 
L 250.243414 164.838061 
L 262.666419 165.824592 
L 275.089425 166.614044 
L 287.51243 165.627229 
L 299.935436 164.739237 
L 312.358442 165.331326 
L 324.781447 165.331326 
L 337.204453 166.021955 
L 349.627458 164.344795 
L 362.050464 164.443335 
L 374.473469 166.219318 
L 386.896475 163.654166 
L 399.319481 164.640698 
L 411.742486 165.035424 
L 424.165492 165.923415 
L 436.588497 163.851246 
L 449.011503 162.469988 
L 461.434508 164.344795 
L 473.857514 165.133963 
L 486.280519 162.766174 
L 498.703525 163.950069 
L 511.126531 166.219318 
L 523.549536 164.640698 
L 535.972542 163.950069 
L 548.395547 163.456803 
L 560.818553 163.851246 
L 573.241558 163.160617 
L 585.664564 163.851246 
L 598.08757 164.640698 
L 610.510575 163.160617 
L 622.933581 165.331326 
L 635.356586 163.062077 
L 647.779592 164.344795 
L 660.202597 162.469988 
L 672.625603 164.838061 
L 685.048609 161.878182 
L 697.471614 162.667351 
L 709.89462 163.950069 
L 722.317625 164.9366 
L 734.740631 162.568811 
L 747.163636 165.824592 
" clip-path="url(#p9484e1cc9b)" style="fill: none; stroke: #7f7f7f; stroke-width: 1.5; stroke-linecap: round"/>
   </g>
   <g id="patch_3">
    <path d="M 108 184.896 
L 108 51.84 
" style="fill: none; stroke: #cccccc; stroke-linejoin: miter; stroke-linecap: square"/>
   </g>
   <g id="patch_4">
    <path d="M 777.6 184.896 
L 777.6 51.84 
" style="fill: none; stroke: #cccccc; stroke-linejoin: miter; stroke-linecap: square"/>
   </g>
   <g id="patch_5">
    <path d="M 108 184.896 
L 777.6 184.896 
" style="fill: none; stroke: #cccccc; stroke-linejoin: miter; stroke-linecap: square"/>
   </g>
   <g id="patch_6">
    <path d="M 108 51.84 
L 777.6 51.84 
" style="fill: none; stroke: #cccccc; stroke-linejoin: miter; stroke-linecap: square"/>
   </g>
   <g id="text_14">
    <!-- Train -->
    <g style="fill: #262626" transform="translate(429.35625 45.84) scale(0.12 -0.12)">
     <defs>
      <path id="ArialMT-54" d="M 1659 0 
L 1659 4041 
L 150 4041 
L 150 4581 
L 3781 4581 
L 3781 4041 
L 2266 4041 
L 2266 0 
L 1659 0 
z
" transform="scale(0.015625)"/>
      <path id="ArialMT-69" d="M 425 3934 
L 425 4581 
L 988 4581 
L 988 3934 
L 425 3934 
z
M 425 0 
L 425 3319 
L 988 3319 
L 988 0 
L 425 0 
z
" transform="scale(0.015625)"/>
      <path id="ArialMT-6e" d="M 422 0 
L 422 3319 
L 928 3319 
L 928 2847 
Q 1294 3394 1984 3394 
Q 2284 3394 2536 3286 
Q 2788 3178 2913 3003 
Q 3038 2828 3088 2588 
Q 3119 2431 3119 2041 
L 3119 0 
L 2556 0 
L 2556 2019 
Q 2556 2363 2490 2533 
Q 2425 2703 2258 2804 
Q 2091 2906 1866 2906 
Q 1506 2906 1245 2678 
Q 984 2450 984 1813 
L 984 0 
L 422 0 
z
" transform="scale(0.015625)"/>
     </defs>
     <use xlink:href="#ArialMT-54"/>
     <use xlink:href="#ArialMT-72" x="57.333984"/>
     <use xlink:href="#ArialMT-61" x="90.634766"/>
     <use xlink:href="#ArialMT-69" x="146.25"/>
     <use xlink:href="#ArialMT-6e" x="168.466797"/>
    </g>
   </g>
   <g id="legend_1">
    <g id="line2d_31">
     <path d="M 722.807813 64.497813 
L 732.807813 64.497813 
L 742.807813 64.497813 
" style="fill: none; stroke: #1f77b4; stroke-width: 1.5; stroke-linecap: round"/>
    </g>
    <g id="text_15">
     <!-- Y10 -->
     <g style="fill: #262626" transform="translate(750.807813 67.997813) scale(0.1 -0.1)">
      <defs>
       <path id="ArialMT-59" d="M 1784 0 
L 1784 1941 
L 19 4581 
L 756 4581 
L 1659 3200 
Q 1909 2813 2125 2425 
Q 2331 2784 2625 3234 
L 3513 4581 
L 4219 4581 
L 2391 1941 
L 2391 0 
L 1784 0 
z
" transform="scale(0.015625)"/>
      </defs>
      <use xlink:href="#ArialMT-59"/>
      <use xlink:href="#ArialMT-31" x="66.699219"/>
      <use xlink:href="#ArialMT-30" x="122.314453"/>
     </g>
    </g>
    <g id="line2d_32">
     <path d="M 722.807813 78.643125 
L 732.807813 78.643125 
L 742.807813 78.643125 
" style="fill: none; stroke: #ff7f0e; stroke-width: 1.5; stroke-linecap: round"/>
    </g>
    <g id="text_16">
     <!-- Y2 -->
     <g style="fill: #262626" transform="translate(750.807813 82.143125) scale(0.1 -0.1)">
      <use xlink:href="#ArialMT-59"/>
      <use xlink:href="#ArialMT-32" x="66.699219"/>
     </g>
    </g>
    <g id="line2d_33">
     <path d="M 722.807813 92.788437 
L 732.807813 92.788437 
L 742.807813 92.788437 
" style="fill: none; stroke: #2ca02c; stroke-width: 1.5; stroke-linecap: round"/>
    </g>
    <g id="text_17">
     <!-- Y3 -->
     <g style="fill: #262626" transform="translate(750.807813 96.288437) scale(0.1 -0.1)">
      <use xlink:href="#ArialMT-59"/>
      <use xlink:href="#ArialMT-33" x="66.699219"/>
     </g>
    </g>
    <g id="line2d_34">
     <path d="M 722.807813 106.93375 
L 732.807813 106.93375 
L 742.807813 106.93375 
" style="fill: none; stroke: #d62728; stroke-width: 1.5; stroke-linecap: round"/>
    </g>
    <g id="text_18">
     <!-- Y4 -->
     <g style="fill: #262626" transform="translate(750.807813 110.43375) scale(0.1 -0.1)">
      <use xlink:href="#ArialMT-59"/>
      <use xlink:href="#ArialMT-34" x="66.699219"/>
     </g>
    </g>
    <g id="line2d_35">
     <path d="M 722.807813 121.079063 
L 732.807813 121.079063 
L 742.807813 121.079063 
" style="fill: none; stroke: #9467bd; stroke-width: 1.5; stroke-linecap: round"/>
    </g>
    <g id="text_19">
     <!-- Y5 -->
     <g style="fill: #262626" transform="translate(750.807813 124.579063) scale(0.1 -0.1)">
      <use xlink:href="#ArialMT-59"/>
      <use xlink:href="#ArialMT-35" x="66.699219"/>
     </g>
    </g>
    <g id="line2d_36">
     <path d="M 722.807813 135.224375 
L 732.807813 135.224375 
L 742.807813 135.224375 
" style="fill: none; stroke: #8c564b; stroke-width: 1.5; stroke-linecap: round"/>
    </g>
    <g id="text_20">
     <!-- Y6 -->
     <g style="fill: #262626" transform="translate(750.807813 138.724375) scale(0.1 -0.1)">
      <use xlink:href="#ArialMT-59"/>
      <use xlink:href="#ArialMT-36" x="66.699219"/>
     </g>
    </g>
    <g id="line2d_37">
     <path d="M 722.807813 149.369687 
L 732.807813 149.369687 
L 742.807813 149.369687 
" style="fill: none; stroke: #e377c2; stroke-width: 1.5; stroke-linecap: round"/>
    </g>
    <g id="text_21">
     <!-- Y7 -->
     <g style="fill: #262626" transform="translate(750.807813 152.869687) scale(0.1 -0.1)">
      <use xlink:href="#ArialMT-59"/>
      <use xlink:href="#ArialMT-37" x="66.699219"/>
     </g>
    </g>
    <g id="line2d_38">
     <path d="M 722.807813 163.515 
L 732.807813 163.515 
L 742.807813 163.515 
" style="fill: none; stroke: #7f7f7f; stroke-width: 1.5; stroke-linecap: round"/>
    </g>
    <g id="text_22">
     <!-- Y8 -->
     <g style="fill: #262626" transform="translate(750.807813 167.015) scale(0.1 -0.1)">
      <use xlink:href="#ArialMT-59"/>
      <use xlink:href="#ArialMT-38" x="66.699219"/>
     </g>
    </g>
   </g>
  </g>
  <g id="axes_2">
   <g id="patch_7">
    <path d="M 108 384.48 
L 777.6 384.48 
L 777.6 251.424 
L 108 251.424 
z
" style="fill: #ffffff"/>
   </g>
   <g id="matplotlib.axis_3">
    <g id="xtick_7">
     <g id="line2d_39">
      <path d="M 138.436364 384.48 
L 138.436364 251.424 
" clip-path="url(#p79815ea7d2)" style="fill: none; stroke: #cccccc; stroke-width: 0.8; stroke-linecap: round"/>
     </g>
     <g id="line2d_40"/>
     <g id="text_23">
      <!-- 0 -->
      <g style="fill: #262626" transform="translate(135.655895 395.137812) scale(0.1 -0.1)">
       <use xlink:href="#ArialMT-30"/>
      </g>
     </g>
    </g>
    <g id="xtick_8">
     <g id="line2d_41">
      <path d="M 262.666419 384.48 
L 262.666419 251.424 
" clip-path="url(#p79815ea7d2)" style="fill: none; stroke: #cccccc; stroke-width: 0.8; stroke-linecap: round"/>
     </g>
     <g id="line2d_42"/>
     <g id="text_24">
      <!-- 10 -->
      <g style="fill: #262626" transform="translate(257.105482 395.137812) scale(0.1 -0.1)">
       <use xlink:href="#ArialMT-31"/>
       <use xlink:href="#ArialMT-30" x="55.615234"/>
      </g>
     </g>
    </g>
    <g id="xtick_9">
     <g id="line2d_43">
      <path d="M 386.896475 384.48 
L 386.896475 251.424 
" clip-path="url(#p79815ea7d2)" style="fill: none; stroke: #cccccc; stroke-width: 0.8; stroke-linecap: round"/>
     </g>
     <g id="line2d_44"/>
     <g id="text_25">
      <!-- 20 -->
      <g style="fill: #262626" transform="translate(381.335537 395.137812) scale(0.1 -0.1)">
       <use xlink:href="#ArialMT-32"/>
       <use xlink:href="#ArialMT-30" x="55.615234"/>
      </g>
     </g>
    </g>
    <g id="xtick_10">
     <g id="line2d_45">
      <path d="M 511.126531 384.48 
L 511.126531 251.424 
" clip-path="url(#p79815ea7d2)" style="fill: none; stroke: #cccccc; stroke-width: 0.8; stroke-linecap: round"/>
     </g>
     <g id="line2d_46"/>
     <g id="text_26">
      <!-- 30 -->
      <g style="fill: #262626" transform="translate(505.565593 395.137812) scale(0.1 -0.1)">
       <use xlink:href="#ArialMT-33"/>
       <use xlink:href="#ArialMT-30" x="55.615234"/>
      </g>
     </g>
    </g>
    <g id="xtick_11">
     <g id="line2d_47">
      <path d="M 635.356586 384.48 
L 635.356586 251.424 
" clip-path="url(#p79815ea7d2)" style="fill: none; stroke: #cccccc; stroke-width: 0.8; stroke-linecap: round"/>
     </g>
     <g id="line2d_48"/>
     <g id="text_27">
      <!-- 40 -->
      <g style="fill: #262626" transform="translate(629.795649 395.137812) scale(0.1 -0.1)">
       <use xlink:href="#ArialMT-34"/>
       <use xlink:href="#ArialMT-30" x="55.615234"/>
      </g>
     </g>
    </g>
    <g id="xtick_12">
     <g id="line2d_49">
      <path d="M 759.586642 384.48 
L 759.586642 251.424 
" clip-path="url(#p79815ea7d2)" style="fill: none; stroke: #cccccc; stroke-width: 0.8; stroke-linecap: round"/>
     </g>
     <g id="line2d_50"/>
     <g id="text_28">
      <!-- 50 -->
      <g style="fill: #262626" transform="translate(754.025704 395.137812) scale(0.1 -0.1)">
       <use xlink:href="#ArialMT-35"/>
       <use xlink:href="#ArialMT-30" x="55.615234"/>
      </g>
     </g>
    </g>
    <g id="text_29">
     <!-- Epochs -->
     <g style="fill: #262626" transform="translate(426.123438 408.283125) scale(0.1 -0.1)">
      <use xlink:href="#ArialMT-45"/>
      <use xlink:href="#ArialMT-70" x="66.699219"/>
      <use xlink:href="#ArialMT-6f" x="122.314453"/>
      <use xlink:href="#ArialMT-63" x="177.929688"/>
      <use xlink:href="#ArialMT-68" x="227.929688"/>
      <use xlink:href="#ArialMT-73" x="283.544922"/>
     </g>
    </g>
   </g>
   <g id="matplotlib.axis_4">
    <g id="ytick_6">
     <g id="line2d_51">
      <path d="M 108 366.929799 
L 777.6 366.929799 
" clip-path="url(#p79815ea7d2)" style="fill: none; stroke: #cccccc; stroke-width: 0.8; stroke-linecap: round"/>
     </g>
     <g id="line2d_52"/>
     <g id="text_30">
      <!-- 0.5 -->
      <g style="fill: #262626" transform="translate(90.6 370.508705) scale(0.1 -0.1)">
       <use xlink:href="#ArialMT-30"/>
       <use xlink:href="#ArialMT-2e" x="55.615234"/>
       <use xlink:href="#ArialMT-35" x="83.398438"/>
      </g>
     </g>
    </g>
    <g id="ytick_7">
     <g id="line2d_53">
      <path d="M 108 340.288915 
L 777.6 340.288915 
" clip-path="url(#p79815ea7d2)" style="fill: none; stroke: #cccccc; stroke-width: 0.8; stroke-linecap: round"/>
     </g>
     <g id="line2d_54"/>
     <g id="text_31">
      <!-- 0.6 -->
      <g style="fill: #262626" transform="translate(90.6 343.867822) scale(0.1 -0.1)">
       <use xlink:href="#ArialMT-30"/>
       <use xlink:href="#ArialMT-2e" x="55.615234"/>
       <use xlink:href="#ArialMT-36" x="83.398438"/>
      </g>
     </g>
    </g>
    <g id="ytick_8">
     <g id="line2d_55">
      <path d="M 108 313.648032 
L 777.6 313.648032 
" clip-path="url(#p79815ea7d2)" style="fill: none; stroke: #cccccc; stroke-width: 0.8; stroke-linecap: round"/>
     </g>
     <g id="line2d_56"/>
     <g id="text_32">
      <!-- 0.7 -->
      <g style="fill: #262626" transform="translate(90.6 317.226938) scale(0.1 -0.1)">
       <use xlink:href="#ArialMT-30"/>
       <use xlink:href="#ArialMT-2e" x="55.615234"/>
       <use xlink:href="#ArialMT-37" x="83.398438"/>
      </g>
     </g>
    </g>
    <g id="ytick_9">
     <g id="line2d_57">
      <path d="M 108 287.007149 
L 777.6 287.007149 
" clip-path="url(#p79815ea7d2)" style="fill: none; stroke: #cccccc; stroke-width: 0.8; stroke-linecap: round"/>
     </g>
     <g id="line2d_58"/>
     <g id="text_33">
      <!-- 0.8 -->
      <g style="fill: #262626" transform="translate(90.6 290.586055) scale(0.1 -0.1)">
       <use xlink:href="#ArialMT-30"/>
       <use xlink:href="#ArialMT-2e" x="55.615234"/>
       <use xlink:href="#ArialMT-38" x="83.398438"/>
      </g>
     </g>
    </g>
    <g id="ytick_10">
     <g id="line2d_59">
      <path d="M 108 260.366266 
L 777.6 260.366266 
" clip-path="url(#p79815ea7d2)" style="fill: none; stroke: #cccccc; stroke-width: 0.8; stroke-linecap: round"/>
     </g>
     <g id="line2d_60"/>
     <g id="text_34">
      <!-- 0.9 -->
      <g style="fill: #262626" transform="translate(90.6 263.945172) scale(0.1 -0.1)">
       <use xlink:href="#ArialMT-30"/>
       <use xlink:href="#ArialMT-2e" x="55.615234"/>
       <use xlink:href="#ArialMT-39" x="83.398438"/>
      </g>
     </g>
    </g>
    <g id="text_35">
     <!-- Accuracy -->
     <g style="fill: #262626" transform="translate(84.495312 338.512938) rotate(-90) scale(0.1 -0.1)">
      <use xlink:href="#ArialMT-41"/>
      <use xlink:href="#ArialMT-63" x="66.699219"/>
      <use xlink:href="#ArialMT-63" x="116.699219"/>
      <use xlink:href="#ArialMT-75" x="166.699219"/>
      <use xlink:href="#ArialMT-72" x="222.314453"/>
      <use xlink:href="#ArialMT-61" x="255.615234"/>
      <use xlink:href="#ArialMT-63" x="311.230469"/>
      <use xlink:href="#ArialMT-79" x="361.230469"/>
     </g>
    </g>
   </g>
   <g id="line2d_61">
    <path d="M 138.436364 356.911761 
L 150.859369 258.585323 
L 163.282375 258.585323 
L 175.70538 257.843108 
L 188.128386 257.843108 
L 200.551391 258.95643 
L 212.974397 258.585323 
L 225.397403 258.95643 
L 237.820408 258.585323 
L 250.243414 259.327271 
L 262.666419 260.440594 
L 275.089425 260.069486 
L 287.51243 258.95643 
L 299.935436 259.327271 
L 312.358442 259.327271 
L 324.781447 260.811435 
L 337.204453 260.069486 
L 349.627458 258.95643 
L 362.050464 259.327271 
L 374.473469 259.327271 
L 386.896475 259.327271 
L 399.319481 259.327271 
L 411.742486 257.472 
L 424.165492 258.95643 
L 436.588497 259.698379 
L 449.011503 257.843108 
L 461.434508 258.585323 
L 473.857514 259.327271 
L 486.280519 258.95643 
L 498.703525 258.95643 
L 511.126531 258.214215 
L 523.549536 259.327271 
L 535.972542 258.585323 
L 548.395547 258.214215 
L 560.818553 258.585323 
L 573.241558 258.95643 
L 585.664564 258.585323 
L 598.08757 258.585323 
L 610.510575 257.472 
L 622.933581 257.472 
L 635.356586 258.585323 
L 647.779592 258.585323 
L 660.202597 259.327271 
L 672.625603 258.95643 
L 685.048609 257.843108 
L 697.471614 259.698379 
L 709.89462 258.95643 
L 722.317625 258.214215 
L 734.740631 257.472 
L 747.163636 257.472 
" clip-path="url(#p79815ea7d2)" style="fill: none; stroke: #1f77b4; stroke-width: 1.5; stroke-linecap: round"/>
   </g>
   <g id="line2d_62">
    <path d="M 138.436364 376.576995 
L 150.859369 357.282602 
L 163.282375 357.282602 
L 175.70538 357.282602 
L 188.128386 357.282602 
L 200.551391 357.282602 
L 212.974397 357.282602 
L 225.397403 357.282602 
L 237.820408 357.282602 
L 250.243414 357.282602 
L 262.666419 357.282602 
L 275.089425 357.282602 
L 287.51243 357.282602 
L 299.935436 357.282602 
L 312.358442 357.282602 
L 324.781447 357.282602 
L 337.204453 357.282602 
L 349.627458 357.282602 
L 362.050464 357.282602 
L 374.473469 357.282602 
L 386.896475 357.282602 
L 399.319481 357.282602 
L 411.742486 357.282602 
L 424.165492 357.282602 
L 436.588497 357.282602 
L 449.011503 357.282602 
L 461.434508 357.282602 
L 473.857514 357.282602 
L 486.280519 357.282602 
L 498.703525 357.282602 
L 511.126531 357.282602 
L 523.549536 357.282602 
L 535.972542 357.282602 
L 548.395547 357.282602 
L 560.818553 357.282602 
L 573.241558 357.282602 
L 585.664564 357.282602 
L 598.08757 357.282602 
L 610.510575 357.282602 
L 622.933581 357.282602 
L 635.356586 357.282602 
L 647.779592 357.282602 
L 660.202597 357.282602 
L 672.625603 357.282602 
L 685.048609 357.282602 
L 697.471614 357.282602 
L 709.89462 357.282602 
L 722.317625 357.282602 
L 734.740631 357.282602 
L 747.163636 357.282602 
" clip-path="url(#p79815ea7d2)" style="fill: none; stroke: #ff7f0e; stroke-width: 1.5; stroke-linecap: round"/>
   </g>
   <g id="line2d_63">
    <path d="M 138.436364 357.282602 
L 150.859369 357.282602 
L 163.282375 357.282602 
L 175.70538 357.282602 
L 188.128386 357.282602 
L 200.551391 357.282602 
L 212.974397 357.282602 
L 225.397403 357.282602 
L 237.820408 357.282602 
L 250.243414 357.282602 
L 262.666419 357.282602 
L 275.089425 357.282602 
L 287.51243 357.282602 
L 299.935436 357.282602 
L 312.358442 357.282602 
L 324.781447 357.282602 
L 337.204453 357.282602 
L 349.627458 357.282602 
L 362.050464 357.282602 
L 374.473469 357.282602 
L 386.896475 357.282602 
L 399.319481 357.282602 
L 411.742486 357.282602 
L 424.165492 357.282602 
L 436.588497 357.282602 
L 449.011503 357.282602 
L 461.434508 357.282602 
L 473.857514 357.282602 
L 486.280519 357.282602 
L 498.703525 357.282602 
L 511.126531 357.282602 
L 523.549536 357.282602 
L 535.972542 357.282602 
L 548.395547 357.282602 
L 560.818553 357.282602 
L 573.241558 357.282602 
L 585.664564 357.282602 
L 598.08757 357.282602 
L 610.510575 357.282602 
L 622.933581 357.282602 
L 635.356586 357.282602 
L 647.779592 357.282602 
L 660.202597 357.282602 
L 672.625603 357.282602 
L 685.048609 357.282602 
L 697.471614 357.282602 
L 709.89462 357.282602 
L 722.317625 357.282602 
L 734.740631 357.282602 
L 747.163636 357.282602 
" clip-path="url(#p79815ea7d2)" style="fill: none; stroke: #2ca02c; stroke-width: 1.5; stroke-linecap: round"/>
   </g>
   <g id="line2d_64">
    <path d="M 138.436364 357.282602 
L 150.859369 357.282602 
L 163.282375 357.282602 
L 175.70538 357.282602 
L 188.128386 357.282602 
L 200.551391 357.282602 
L 212.974397 357.282602 
L 225.397403 357.282602 
L 237.820408 357.282602 
L 250.243414 357.282602 
L 262.666419 357.282602 
L 275.089425 357.282602 
L 287.51243 357.282602 
L 299.935436 357.282602 
L 312.358442 357.282602 
L 324.781447 357.282602 
L 337.204453 357.282602 
L 349.627458 357.282602 
L 362.050464 357.282602 
L 374.473469 357.282602 
L 386.896475 357.282602 
L 399.319481 357.282602 
L 411.742486 357.282602 
L 424.165492 357.282602 
L 436.588497 357.282602 
L 449.011503 357.282602 
L 461.434508 357.282602 
L 473.857514 357.282602 
L 486.280519 357.282602 
L 498.703525 357.282602 
L 511.126531 357.282602 
L 523.549536 357.282602 
L 535.972542 357.282602 
L 548.395547 357.282602 
L 560.818553 357.282602 
L 573.241558 357.282602 
L 585.664564 357.282602 
L 598.08757 357.282602 
L 610.510575 357.282602 
L 622.933581 357.282602 
L 635.356586 357.282602 
L 647.779592 357.282602 
L 660.202597 357.282602 
L 672.625603 357.282602 
L 685.048609 357.282602 
L 697.471614 357.282602 
L 709.89462 357.282602 
L 722.317625 357.282602 
L 734.740631 357.282602 
L 747.163636 357.282602 
" clip-path="url(#p79815ea7d2)" style="fill: none; stroke: #d62728; stroke-width: 1.5; stroke-linecap: round"/>
   </g>
   <g id="line2d_65">
    <path d="M 138.436364 261.55365 
L 150.859369 357.282602 
L 163.282375 357.282602 
L 175.70538 357.282602 
L 188.128386 357.282602 
L 200.551391 357.282602 
L 212.974397 357.282602 
L 225.397403 357.282602 
L 237.820408 357.282602 
L 250.243414 357.282602 
L 262.666419 356.911761 
L 275.089425 356.911761 
L 287.51243 357.282602 
L 299.935436 357.282602 
L 312.358442 357.282602 
L 324.781447 357.282602 
L 337.204453 357.282602 
L 349.627458 357.282602 
L 362.050464 357.282602 
L 374.473469 357.282602 
L 386.896475 357.282602 
L 399.319481 357.282602 
L 411.742486 357.282602 
L 424.165492 357.282602 
L 436.588497 357.282602 
L 449.011503 357.282602 
L 461.434508 357.282602 
L 473.857514 357.282602 
L 486.280519 357.282602 
L 498.703525 357.282602 
L 511.126531 357.282602 
L 523.549536 357.282602 
L 535.972542 357.282602 
L 548.395547 357.282602 
L 560.818553 357.282602 
L 573.241558 357.282602 
L 585.664564 357.282602 
L 598.08757 357.282602 
L 610.510575 357.282602 
L 622.933581 357.282602 
L 635.356586 283.816104 
L 647.779592 357.282602 
L 660.202597 357.282602 
L 672.625603 357.282602 
L 685.048609 357.282602 
L 697.471614 357.282602 
L 709.89462 357.282602 
L 722.317625 357.282602 
L 734.740631 357.282602 
L 747.163636 357.282602 
" clip-path="url(#p79815ea7d2)" style="fill: none; stroke: #9467bd; stroke-width: 1.5; stroke-linecap: round"/>
   </g>
   <g id="line2d_66">
    <path d="M 138.436364 376.576995 
L 150.859369 376.576995 
L 163.282375 376.576995 
L 175.70538 376.576995 
L 188.128386 376.576995 
L 200.551391 376.576995 
L 212.974397 376.576995 
L 225.397403 376.576995 
L 237.820408 376.576995 
L 250.243414 376.576995 
L 262.666419 376.576995 
L 275.089425 376.576995 
L 287.51243 376.576995 
L 299.935436 376.576995 
L 312.358442 376.576995 
L 324.781447 376.576995 
L 337.204453 376.576995 
L 349.627458 376.576995 
L 362.050464 376.576995 
L 374.473469 376.576995 
L 386.896475 376.576995 
L 399.319481 376.576995 
L 411.742486 376.576995 
L 424.165492 376.576995 
L 436.588497 376.576995 
L 449.011503 376.576995 
L 461.434508 376.576995 
L 473.857514 376.576995 
L 486.280519 376.576995 
L 498.703525 376.576995 
L 511.126531 376.576995 
L 523.549536 376.576995 
L 535.972542 376.576995 
L 548.395547 376.576995 
L 560.818553 376.576995 
L 573.241558 376.576995 
L 585.664564 376.576995 
L 598.08757 376.576995 
L 610.510575 376.576995 
L 622.933581 376.576995 
L 635.356586 376.576995 
L 647.779592 376.576995 
L 660.202597 376.576995 
L 672.625603 376.576995 
L 685.048609 378.061159 
L 697.471614 378.432 
L 709.89462 378.061159 
L 722.317625 378.432 
L 734.740631 377.318944 
L 747.163636 377.318944 
" clip-path="url(#p79815ea7d2)" style="fill: none; stroke: #8c564b; stroke-width: 1.5; stroke-linecap: round"/>
   </g>
   <g id="line2d_67">
    <path d="M 138.436364 283.816104 
L 150.859369 307.19188 
L 163.282375 307.19188 
L 175.70538 307.562988 
L 188.128386 307.562988 
L 200.551391 307.562988 
L 212.974397 307.562988 
L 225.397403 308.676044 
L 237.820408 308.304937 
L 250.243414 308.304937 
L 262.666419 308.304937 
L 275.089425 310.902423 
L 287.51243 312.757427 
L 299.935436 309.047152 
L 312.358442 308.676044 
L 324.781447 309.418259 
L 337.204453 309.7891 
L 349.627458 310.531315 
L 362.050464 310.160208 
L 374.473469 310.160208 
L 386.896475 311.644371 
L 399.319481 311.273264 
L 411.742486 309.7891 
L 424.165492 310.531315 
L 436.588497 308.676044 
L 449.011503 309.047152 
L 461.434508 309.418259 
L 473.857514 309.418259 
L 486.280519 308.676044 
L 498.703525 309.7891 
L 511.126531 311.273264 
L 523.549536 310.160208 
L 535.972542 317.952133 
L 548.395547 312.757427 
L 560.818553 312.757427 
L 573.241558 356.911761 
L 585.664564 357.282602 
L 598.08757 357.282602 
L 610.510575 357.282602 
L 622.933581 357.282602 
L 635.356586 357.282602 
L 647.779592 357.282602 
L 660.202597 357.282602 
L 672.625603 357.282602 
L 685.048609 357.282602 
L 697.471614 357.282602 
L 709.89462 357.282602 
L 722.317625 357.282602 
L 734.740631 357.282602 
L 747.163636 357.282602 
" clip-path="url(#p79815ea7d2)" style="fill: none; stroke: #e377c2; stroke-width: 1.5; stroke-linecap: round"/>
   </g>
   <g id="line2d_68">
    <path d="M 138.436364 336.133204 
L 150.859369 357.282602 
L 163.282375 357.282602 
L 175.70538 357.282602 
L 188.128386 357.282602 
L 200.551391 357.282602 
L 212.974397 357.282602 
L 225.397403 357.282602 
L 237.820408 357.282602 
L 250.243414 357.282602 
L 262.666419 357.282602 
L 275.089425 357.282602 
L 287.51243 357.282602 
L 299.935436 357.282602 
L 312.358442 357.282602 
L 324.781447 357.282602 
L 337.204453 357.282602 
L 349.627458 357.282602 
L 362.050464 357.282602 
L 374.473469 357.282602 
L 386.896475 357.282602 
L 399.319481 357.282602 
L 411.742486 357.282602 
L 424.165492 357.282602 
L 436.588497 357.282602 
L 449.011503 357.282602 
L 461.434508 357.282602 
L 473.857514 357.282602 
L 486.280519 357.282602 
L 498.703525 357.282602 
L 511.126531 357.282602 
L 523.549536 357.282602 
L 535.972542 357.282602 
L 548.395547 357.282602 
L 560.818553 357.282602 
L 573.241558 357.282602 
L 585.664564 357.282602 
L 598.08757 357.282602 
L 610.510575 357.282602 
L 622.933581 357.282602 
L 635.356586 357.282602 
L 647.779592 357.282602 
L 660.202597 357.282602 
L 672.625603 357.282602 
L 685.048609 357.282602 
L 697.471614 357.282602 
L 709.89462 357.282602 
L 722.317625 357.282602 
L 734.740631 357.282602 
L 747.163636 357.282602 
" clip-path="url(#p79815ea7d2)" style="fill: none; stroke: #7f7f7f; stroke-width: 1.5; stroke-linecap: round"/>
   </g>
   <g id="patch_8">
    <path d="M 108 384.48 
L 108 251.424 
" style="fill: none; stroke: #cccccc; stroke-linejoin: miter; stroke-linecap: square"/>
   </g>
   <g id="patch_9">
    <path d="M 777.6 384.48 
L 777.6 251.424 
" style="fill: none; stroke: #cccccc; stroke-linejoin: miter; stroke-linecap: square"/>
   </g>
   <g id="patch_10">
    <path d="M 108 384.48 
L 777.6 384.48 
" style="fill: none; stroke: #cccccc; stroke-linejoin: miter; stroke-linecap: square"/>
   </g>
   <g id="patch_11">
    <path d="M 108 251.424 
L 777.6 251.424 
" style="fill: none; stroke: #cccccc; stroke-linejoin: miter; stroke-linecap: square"/>
   </g>
   <g id="text_36">
    <!-- Test -->
    <g style="fill: #262626" transform="translate(431.799375 245.424) scale(0.12 -0.12)">
     <defs>
      <path id="ArialMT-65" d="M 2694 1069 
L 3275 997 
Q 3138 488 2766 206 
Q 2394 -75 1816 -75 
Q 1088 -75 661 373 
Q 234 822 234 1631 
Q 234 2469 665 2931 
Q 1097 3394 1784 3394 
Q 2450 3394 2872 2941 
Q 3294 2488 3294 1666 
Q 3294 1616 3291 1516 
L 816 1516 
Q 847 969 1125 678 
Q 1403 388 1819 388 
Q 2128 388 2347 550 
Q 2566 713 2694 1069 
z
M 847 1978 
L 2700 1978 
Q 2663 2397 2488 2606 
Q 2219 2931 1791 2931 
Q 1403 2931 1139 2672 
Q 875 2413 847 1978 
z
" transform="scale(0.015625)"/>
      <path id="ArialMT-74" d="M 1650 503 
L 1731 6 
Q 1494 -44 1306 -44 
Q 1000 -44 831 53 
Q 663 150 594 308 
Q 525 466 525 972 
L 525 2881 
L 113 2881 
L 113 3319 
L 525 3319 
L 525 4141 
L 1084 4478 
L 1084 3319 
L 1650 3319 
L 1650 2881 
L 1084 2881 
L 1084 941 
Q 1084 700 1114 631 
Q 1144 563 1211 522 
Q 1278 481 1403 481 
Q 1497 481 1650 503 
z
" transform="scale(0.015625)"/>
     </defs>
     <use xlink:href="#ArialMT-54"/>
     <use xlink:href="#ArialMT-65" x="49.958984"/>
     <use xlink:href="#ArialMT-73" x="105.574219"/>
     <use xlink:href="#ArialMT-74" x="155.574219"/>
    </g>
   </g>
   <g id="legend_2">
    <g id="line2d_69">
     <path d="M 722.807813 267.528563 
L 732.807813 267.528563 
L 742.807813 267.528563 
" style="fill: none; stroke: #1f77b4; stroke-width: 1.5; stroke-linecap: round"/>
    </g>
    <g id="text_37">
     <!-- Y10 -->
     <g style="fill: #262626" transform="translate(750.807813 271.028563) scale(0.1 -0.1)">
      <use xlink:href="#ArialMT-59"/>
      <use xlink:href="#ArialMT-31" x="66.699219"/>
      <use xlink:href="#ArialMT-30" x="122.314453"/>
     </g>
    </g>
    <g id="line2d_70">
     <path d="M 722.807813 281.673875 
L 732.807813 281.673875 
L 742.807813 281.673875 
" style="fill: none; stroke: #ff7f0e; stroke-width: 1.5; stroke-linecap: round"/>
    </g>
    <g id="text_38">
     <!-- Y2 -->
     <g style="fill: #262626" transform="translate(750.807813 285.173875) scale(0.1 -0.1)">
      <use xlink:href="#ArialMT-59"/>
      <use xlink:href="#ArialMT-32" x="66.699219"/>
     </g>
    </g>
    <g id="line2d_71">
     <path d="M 722.807813 295.819187 
L 732.807813 295.819187 
L 742.807813 295.819187 
" style="fill: none; stroke: #2ca02c; stroke-width: 1.5; stroke-linecap: round"/>
    </g>
    <g id="text_39">
     <!-- Y3 -->
     <g style="fill: #262626" transform="translate(750.807813 299.319187) scale(0.1 -0.1)">
      <use xlink:href="#ArialMT-59"/>
      <use xlink:href="#ArialMT-33" x="66.699219"/>
     </g>
    </g>
    <g id="line2d_72">
     <path d="M 722.807813 309.9645 
L 732.807813 309.9645 
L 742.807813 309.9645 
" style="fill: none; stroke: #d62728; stroke-width: 1.5; stroke-linecap: round"/>
    </g>
    <g id="text_40">
     <!-- Y4 -->
     <g style="fill: #262626" transform="translate(750.807813 313.4645) scale(0.1 -0.1)">
      <use xlink:href="#ArialMT-59"/>
      <use xlink:href="#ArialMT-34" x="66.699219"/>
     </g>
    </g>
    <g id="line2d_73">
     <path d="M 722.807813 324.109812 
L 732.807813 324.109812 
L 742.807813 324.109812 
" style="fill: none; stroke: #9467bd; stroke-width: 1.5; stroke-linecap: round"/>
    </g>
    <g id="text_41">
     <!-- Y5 -->
     <g style="fill: #262626" transform="translate(750.807813 327.609812) scale(0.1 -0.1)">
      <use xlink:href="#ArialMT-59"/>
      <use xlink:href="#ArialMT-35" x="66.699219"/>
     </g>
    </g>
    <g id="line2d_74">
     <path d="M 722.807813 338.255125 
L 732.807813 338.255125 
L 742.807813 338.255125 
" style="fill: none; stroke: #8c564b; stroke-width: 1.5; stroke-linecap: round"/>
    </g>
    <g id="text_42">
     <!-- Y6 -->
     <g style="fill: #262626" transform="translate(750.807813 341.755125) scale(0.1 -0.1)">
      <use xlink:href="#ArialMT-59"/>
      <use xlink:href="#ArialMT-36" x="66.699219"/>
     </g>
    </g>
    <g id="line2d_75">
     <path d="M 722.807813 352.400438 
L 732.807813 352.400438 
L 742.807813 352.400438 
" style="fill: none; stroke: #e377c2; stroke-width: 1.5; stroke-linecap: round"/>
    </g>
    <g id="text_43">
     <!-- Y7 -->
     <g style="fill: #262626" transform="translate(750.807813 355.900438) scale(0.1 -0.1)">
      <use xlink:href="#ArialMT-59"/>
      <use xlink:href="#ArialMT-37" x="66.699219"/>
     </g>
    </g>
    <g id="line2d_76">
     <path d="M 722.807813 366.54575 
L 732.807813 366.54575 
L 742.807813 366.54575 
" style="fill: none; stroke: #7f7f7f; stroke-width: 1.5; stroke-linecap: round"/>
    </g>
    <g id="text_44">
     <!-- Y8 -->
     <g style="fill: #262626" transform="translate(750.807813 370.04575) scale(0.1 -0.1)">
      <use xlink:href="#ArialMT-59"/>
      <use xlink:href="#ArialMT-38" x="66.699219"/>
     </g>
    </g>
   </g>
  </g>
  <g id="text_45">
   <!-- Architecture -->
   <g style="fill: #262626" transform="translate(396.658125 17.229375) scale(0.12 -0.12)">
    <defs>
     <path id="Arial-BoldMT-41" d="M 4597 0 
L 3591 0 
L 3191 1041 
L 1359 1041 
L 981 0 
L 0 0 
L 1784 4581 
L 2763 4581 
L 4597 0 
z
M 2894 1813 
L 2263 3513 
L 1644 1813 
L 2894 1813 
z
" transform="scale(0.015625)"/>
     <path id="Arial-BoldMT-72" d="M 1300 0 
L 422 0 
L 422 3319 
L 1238 3319 
L 1238 2847 
Q 1447 3181 1614 3287 
Q 1781 3394 1994 3394 
Q 2294 3394 2572 3228 
L 2300 2463 
Q 2078 2606 1888 2606 
Q 1703 2606 1575 2504 
Q 1447 2403 1373 2137 
Q 1300 1872 1300 1025 
L 1300 0 
z
" transform="scale(0.015625)"/>
     <path id="Arial-BoldMT-63" d="M 3353 2338 
L 2488 2181 
Q 2444 2441 2289 2572 
Q 2134 2703 1888 2703 
Q 1559 2703 1364 2476 
Q 1169 2250 1169 1719 
Q 1169 1128 1367 884 
Q 1566 641 1900 641 
Q 2150 641 2309 783 
Q 2469 925 2534 1272 
L 3397 1125 
Q 3263 531 2881 228 
Q 2500 -75 1859 -75 
Q 1131 -75 698 384 
Q 266 844 266 1656 
Q 266 2478 700 2936 
Q 1134 3394 1875 3394 
Q 2481 3394 2839 3133 
Q 3197 2872 3353 2338 
z
" transform="scale(0.015625)"/>
     <path id="Arial-BoldMT-68" d="M 1334 4581 
L 1334 2897 
Q 1759 3394 2350 3394 
Q 2653 3394 2897 3281 
Q 3141 3169 3264 2994 
Q 3388 2819 3433 2606 
Q 3478 2394 3478 1947 
L 3478 0 
L 2600 0 
L 2600 1753 
Q 2600 2275 2550 2415 
Q 2500 2556 2373 2639 
Q 2247 2722 2056 2722 
Q 1838 2722 1666 2615 
Q 1494 2509 1414 2295 
Q 1334 2081 1334 1663 
L 1334 0 
L 456 0 
L 456 4581 
L 1334 4581 
z
" transform="scale(0.015625)"/>
     <path id="Arial-BoldMT-69" d="M 459 3769 
L 459 4581 
L 1338 4581 
L 1338 3769 
L 459 3769 
z
M 459 0 
L 459 3319 
L 1338 3319 
L 1338 0 
L 459 0 
z
" transform="scale(0.015625)"/>
     <path id="Arial-BoldMT-74" d="M 1981 3319 
L 1981 2619 
L 1381 2619 
L 1381 1281 
Q 1381 875 1398 808 
Q 1416 741 1477 697 
Q 1538 653 1625 653 
Q 1747 653 1978 738 
L 2053 56 
Q 1747 -75 1359 -75 
Q 1122 -75 931 4 
Q 741 84 652 211 
Q 563 338 528 553 
Q 500 706 500 1172 
L 500 2619 
L 97 2619 
L 97 3319 
L 500 3319 
L 500 3978 
L 1381 4491 
L 1381 3319 
L 1981 3319 
z
" transform="scale(0.015625)"/>
     <path id="Arial-BoldMT-65" d="M 2381 1056 
L 3256 909 
Q 3088 428 2723 176 
Q 2359 -75 1813 -75 
Q 947 -75 531 491 
Q 203 944 203 1634 
Q 203 2459 634 2926 
Q 1066 3394 1725 3394 
Q 2466 3394 2894 2905 
Q 3322 2416 3303 1406 
L 1103 1406 
Q 1113 1016 1316 798 
Q 1519 581 1822 581 
Q 2028 581 2168 693 
Q 2309 806 2381 1056 
z
M 2431 1944 
Q 2422 2325 2234 2523 
Q 2047 2722 1778 2722 
Q 1491 2722 1303 2513 
Q 1116 2303 1119 1944 
L 2431 1944 
z
" transform="scale(0.015625)"/>
     <path id="Arial-BoldMT-75" d="M 2644 0 
L 2644 497 
Q 2463 231 2167 78 
Q 1872 -75 1544 -75 
Q 1209 -75 943 72 
Q 678 219 559 484 
Q 441 750 441 1219 
L 441 3319 
L 1319 3319 
L 1319 1794 
Q 1319 1094 1367 936 
Q 1416 778 1544 686 
Q 1672 594 1869 594 
Q 2094 594 2272 717 
Q 2450 841 2515 1023 
Q 2581 1206 2581 1919 
L 2581 3319 
L 3459 3319 
L 3459 0 
L 2644 0 
z
" transform="scale(0.015625)"/>
    </defs>
    <use xlink:href="#Arial-BoldMT-41"/>
    <use xlink:href="#Arial-BoldMT-72" x="72.216797"/>
    <use xlink:href="#Arial-BoldMT-63" x="111.132812"/>
    <use xlink:href="#Arial-BoldMT-68" x="166.748047"/>
    <use xlink:href="#Arial-BoldMT-69" x="227.832031"/>
    <use xlink:href="#Arial-BoldMT-74" x="255.615234"/>
    <use xlink:href="#Arial-BoldMT-65" x="288.916016"/>
    <use xlink:href="#Arial-BoldMT-63" x="344.53125"/>
    <use xlink:href="#Arial-BoldMT-74" x="400.146484"/>
    <use xlink:href="#Arial-BoldMT-75" x="433.447266"/>
    <use xlink:href="#Arial-BoldMT-72" x="494.53125"/>
    <use xlink:href="#Arial-BoldMT-65" x="533.447266"/>
   </g>
   <!-- low -->
   <g style="fill: #262626" transform="translate(422.001562 29.90475) scale(0.12 -0.12)">
    <defs>
     <path id="Arial-BoldMT-6c" d="M 459 0 
L 459 4581 
L 1338 4581 
L 1338 0 
L 459 0 
z
" transform="scale(0.015625)"/>
     <path id="Arial-BoldMT-6f" d="M 256 1706 
Q 256 2144 472 2553 
Q 688 2963 1083 3178 
Q 1478 3394 1966 3394 
Q 2719 3394 3200 2905 
Q 3681 2416 3681 1669 
Q 3681 916 3195 420 
Q 2709 -75 1972 -75 
Q 1516 -75 1102 131 
Q 688 338 472 736 
Q 256 1134 256 1706 
z
M 1156 1659 
Q 1156 1166 1390 903 
Q 1625 641 1969 641 
Q 2313 641 2545 903 
Q 2778 1166 2778 1666 
Q 2778 2153 2545 2415 
Q 2313 2678 1969 2678 
Q 1625 2678 1390 2415 
Q 1156 2153 1156 1659 
z
" transform="scale(0.015625)"/>
     <path id="Arial-BoldMT-77" d="M 1078 0 
L 28 3319 
L 881 3319 
L 1503 1144 
L 2075 3319 
L 2922 3319 
L 3475 1144 
L 4109 3319 
L 4975 3319 
L 3909 0 
L 3066 0 
L 2494 2134 
L 1931 0 
L 1078 0 
z
" transform="scale(0.015625)"/>
    </defs>
    <use xlink:href="#Arial-BoldMT-6c"/>
    <use xlink:href="#Arial-BoldMT-6f" x="27.783203"/>
    <use xlink:href="#Arial-BoldMT-77" x="88.867188"/>
   </g>
  </g>
 </g>
 <defs>
  <clipPath id="p9484e1cc9b">
   <rect x="108" y="51.84" width="669.6" height="133.056"/>
  </clipPath>
  <clipPath id="p79815ea7d2">
   <rect x="108" y="251.424" width="669.6" height="133.056"/>
  </clipPath>
 </defs>
</svg>
