<?xml version="1.0" encoding="utf-8" standalone="no"?>
<!DOCTYPE svg PUBLIC "-//W3C//DTD SVG 1.1//EN"
  "http://www.w3.org/Graphics/SVG/1.1/DTD/svg11.dtd">
<svg xmlns:xlink="http://www.w3.org/1999/xlink" width="572.4pt" height="347.04pt" viewBox="0 0 572.4 347.04" xmlns="http://www.w3.org/2000/svg" version="1.1">
 <metadata>
  <rdf:RDF xmlns:dc="http://purl.org/dc/elements/1.1/" xmlns:cc="http://creativecommons.org/ns#" xmlns:rdf="http://www.w3.org/1999/02/22-rdf-syntax-ns#">
   <cc:Work>
    <dc:type rdf:resource="http://purl.org/dc/dcmitype/StillImage"/>
    <dc:date>2024-06-17T12:26:57.610588</dc:date>
    <dc:format>image/svg+xml</dc:format>
    <dc:creator>
     <cc:Agent>
      <dc:title>Matplotlib v3.9.0, https://matplotlib.org/</dc:title>
     </cc:Agent>
    </dc:creator>
   </cc:Work>
  </rdf:RDF>
 </metadata>
 <defs>
  <style type="text/css">*{stroke-linejoin: round; stroke-linecap: butt}</style>
 </defs>
 <g id="figure_1">
  <g id="patch_1">
   <path d="M 0 347.04 
L 572.4 347.04 
L 572.4 -0 
L 0 -0 
L 0 347.04 
z
" style="fill: none"/>
  </g>
  <g id="axes_1">
   <g id="patch_2">
    <path d="M 7.2 339.84 
L 565.2 339.84 
L 565.2 7.2 
L 7.2 7.2 
L 7.2 339.84 
z
" style="fill: none"/>
   </g>
   <g id="matplotlib.axis_1"/>
   <g id="matplotlib.axis_2"/>
   <g id="line2d_1">
    <path d="M 32.563636 214.584904 
L 34.388358 201.943867 
L 36.21308 203.770834 
L 38.037802 203.406425 
L 39.862525 203.635412 
L 41.687247 200.712757 
L 43.511969 199.663851 
L 45.336691 197.836884 
L 47.161413 201.259369 
L 48.986135 198.019088 
L 50.810857 199.072918 
L 52.635579 199.299442 
L 54.460301 200.757077 
L 56.285023 203.679732 
L 58.109745 203.861936 
L 59.934467 207.148384 
L 61.759189 203.726514 
L 63.583911 211.16488 
L 65.408633 208.425661 
L 67.233355 211.529289 
L 69.058077 214.402699 
L 70.882799 211.711493 
L 72.707521 211.118098 
L 74.532243 209.566899 
L 76.356965 206.098863 
L 78.181687 210.980214 
L 80.006409 208.562929 
L 81.831131 212.442772 
L 83.655853 211.711493 
L 85.480576 214.082611 
L 87.305298 209.566899 
L 89.13002 212.580657 
L 90.954742 215.087196 
L 92.779464 208.562929 
L 94.604186 205.59657 
L 96.428908 206.737193 
L 98.25363 208.562929 
L 100.078352 203.679732 
L 101.903074 199.299442 
L 103.727796 198.339177 
L 105.552518 200.944205 
L 107.37724 197.974768 
L 109.201962 196.37925 
L 111.026684 191.041157 
L 112.851406 198.112652 
L 116.50085 204.455331 
L 118.325572 208.60848 
L 120.150294 207.422037 
L 121.975016 213.856087 
L 123.799738 214.451944 
L 125.62446 214.451944 
L 127.449182 222.301501 
L 129.273905 228.279771 
L 131.098627 234.819427 
L 132.923349 237.734695 
L 134.748071 243.348557 
L 136.572793 242.659135 
L 138.397515 248.135112 
L 140.222237 244.944075 
L 142.046959 245.850172 
L 143.871681 243.387952 
L 145.696403 247.780552 
L 149.345847 247.682064 
L 151.170569 244.037978 
L 152.995291 243.309161 
L 154.820013 241.201501 
L 156.644735 242.028807 
L 158.469457 243.210672 
L 160.294179 245.948661 
L 162.118901 243.033392 
L 163.943623 247.544179 
L 165.768345 246.263825 
L 167.593067 243.072788 
L 169.417789 241.103012 
L 171.242511 232.810255 
L 173.067233 236.178572 
L 174.891956 233.361793 
L 176.716678 233.361793 
L 178.5414 229.638916 
L 180.366122 231.254132 
L 182.190844 228.693424 
L 184.015566 232.672371 
L 185.840288 226.772892 
L 187.66501 225.128129 
L 189.489732 220.430214 
L 191.314454 220.430214 
L 193.139176 216.047462 
L 194.963898 217.460776 
L 196.78862 214.767108 
L 198.613342 210.204614 
L 200.438064 208.380109 
L 202.262786 203.406425 
L 204.087508 204.273127 
L 205.91223 204.910842 
L 209.561674 213.629562 
L 211.386396 208.745749 
L 213.211118 208.7913 
L 215.03584 203.086337 
L 216.860562 204.866522 
L 218.685284 203.635412 
L 220.510007 203.497527 
L 222.334729 205.094277 
L 224.159451 202.904132 
L 225.984173 198.521381 
L 227.808895 199.98394 
L 229.633617 198.112652 
L 231.458339 190.263095 
L 233.283061 189.947931 
L 235.107783 193.227608 
L 236.932505 189.849442 
L 238.757227 192.77456 
L 240.581949 190.952517 
L 242.406671 189.898687 
L 244.231393 176.77013 
L 246.056115 172.160855 
L 247.880837 170.112288 
L 249.705559 172.988161 
L 251.530281 175.45038 
L 253.355003 179.508119 
L 255.179725 178.365649 
L 257.004447 180.335425 
L 258.829169 159.928546 
L 260.653891 149.015987 
L 262.478613 139.127712 
L 264.303336 138.891339 
L 266.128058 138.418593 
L 267.95278 142.909682 
L 269.777502 157.289046 
L 271.602224 157.052673 
L 273.426946 149.528129 
L 275.251668 140.939906 
L 277.07639 141.806608 
L 278.901112 142.949078 
L 280.725834 148.425055 
L 284.375278 170.191079 
L 286.2 166.153038 
L 288.024722 163.001397 
L 289.849444 155.713226 
L 291.674166 159.416404 
L 293.498888 160.322501 
L 295.32361 168.59556 
L 297.148332 180.414216 
L 298.973054 186.165961 
L 300.797776 189.485034 
L 302.622498 186.559917 
L 304.44722 177.085294 
L 306.271942 180.5521 
L 308.096664 182.797645 
L 309.921387 189.534278 
L 311.746109 183.526462 
L 313.570831 182.876436 
L 315.395553 174.524586 
L 317.220275 175.036727 
L 319.044997 175.036727 
L 320.869719 172.121459 
L 322.694441 171.333549 
L 324.519163 173.618489 
L 326.343885 165.010568 
L 329.993329 163.316561 
L 331.818051 174.30791 
L 333.642773 175.036727 
L 335.467495 186.559917 
L 337.292217 187.209943 
L 339.116939 195.788317 
L 340.941661 199.890375 
L 342.766383 206.463271 
L 344.591105 216.185347 
L 346.415827 229.323752 
L 348.240549 227.639594 
L 350.065271 227.186545 
L 351.889993 233.716352 
L 353.714716 230.013174 
L 355.539438 233.539072 
L 357.36416 232.081438 
L 359.188882 232.672371 
L 361.013604 227.728233 
L 362.838326 233.223908 
L 368.312492 223.670495 
L 370.137214 221.572684 
L 371.961936 220.292329 
L 373.786658 216.185347 
L 375.61138 219.061219 
L 377.436102 219.425628 
L 379.260824 221.572684 
L 381.085546 215.909578 
L 382.910268 212.304888 
L 384.73499 204.319909 
L 386.559712 205.23093 
L 388.384434 205.733223 
L 390.209156 203.99982 
L 392.033878 200.850641 
L 393.8586 201.490818 
L 395.683322 200.624117 
L 397.508044 194.182949 
L 399.332767 185.890193 
L 401.157489 182.935529 
L 402.982211 178.050485 
L 406.631655 169.107702 
L 408.456377 168.181907 
L 410.281099 163.592329 
L 412.105821 155.043502 
L 413.930543 153.979823 
L 415.755265 148.81901 
L 417.579987 147.912913 
L 419.404709 146.849234 
L 421.229431 140.506555 
L 423.054153 141.018697 
L 424.878875 141.018697 
L 426.703597 131.642564 
L 428.528319 125.142303 
L 430.353041 117.341991 
L 432.177763 111.9842 
L 434.002485 108.753768 
L 435.827207 110.723544 
L 437.651929 117.2632 
L 439.476651 121.360334 
L 443.126095 140.939906 
L 444.950818 144.367316 
L 446.77554 154.137405 
L 448.600262 158.392121 
L 450.424984 161.071016 
L 454.074428 163.513538 
L 455.89915 164.459031 
L 457.723872 160.519479 
L 459.548594 160.480083 
L 461.373316 157.919375 
L 465.02276 154.767733 
L 466.847482 153.349495 
L 468.672204 154.807129 
L 470.496926 150.709995 
L 472.321648 145.194622 
L 474.14637 141.530839 
L 475.971092 135.739698 
L 477.795814 130.775862 
L 479.620536 129.357624 
L 481.445258 127.663616 
L 483.26998 124.590766 
L 485.094702 120.808796 
L 486.919424 117.893528 
L 488.744147 122.069453 
L 490.568869 118.05111 
L 492.393591 119.54814 
L 494.218313 121.83308 
L 496.043035 124.984721 
L 497.867757 133.966899 
L 499.692479 136.094257 
L 501.517201 138.497384 
L 503.341923 136.921563 
L 505.166645 133.336571 
L 506.991367 137.867056 
L 508.816089 141.570234 
L 510.640811 145.903742 
L 512.465533 155.910203 
L 514.290255 162.016509 
L 516.114977 167.019739 
L 517.939699 167.689463 
L 519.764421 175.489776 
L 521.589143 183.80223 
L 523.413865 193.641261 
L 525.238587 198.388421 
L 527.063309 202.675146 
L 528.888031 201.579458 
L 530.712753 192.085138 
L 532.537475 190.125211 
L 534.362198 186.067473 
L 536.18692 177.321668 
L 538.011642 172.653299 
L 539.836364 172.653299 
L 539.836364 172.653299 
" clip-path="url(#p775f6480b8)" style="fill: none; stroke: #1f77b4; stroke-width: 1.5; stroke-linecap: square"/>
   </g>
   <g id="line2d_2">
    <path d="M 32.563636 203.507376 
L 34.388358 197.226253 
L 36.21308 188.854706 
L 38.037802 186.106868 
L 39.862525 182.305201 
L 41.687247 177.617134 
L 43.511969 176.356477 
L 45.336691 176.356477 
L 47.161413 180.926357 
L 48.986135 185.811402 
L 50.810857 197.487249 
L 52.635579 204.388851 
L 54.460301 212.344283 
L 56.285023 221.749964 
L 58.109745 226.871381 
L 61.759189 227.324429 
L 63.583911 228.673726 
L 65.408633 225.807702 
L 67.233355 227.925211 
L 69.058077 231.27383 
L 70.882799 226.398635 
L 72.707521 215.97852 
L 74.532243 212.275341 
L 76.356965 209.694935 
L 78.181687 209.30098 
L 80.006409 204.814815 
L 81.831131 203.376879 
L 83.655853 199.156634 
L 85.480576 197.979693 
L 87.305298 194.045065 
L 89.13002 195.620886 
L 90.954742 198.861167 
L 92.779464 196.960334 
L 94.604186 192.213174 
L 96.428908 186.205357 
L 98.25363 187.032663 
L 100.078352 187.544805 
L 101.903074 184.570443 
L 103.727796 185.338656 
L 105.552518 189.829745 
L 107.37724 190.854028 
L 109.201962 192.971537 
L 111.026684 193.335946 
L 112.851406 197.157311 
L 114.676128 201.446498 
L 116.50085 195.49285 
L 118.325572 201.348009 
L 120.150294 204.489802 
L 121.975016 206.154263 
L 123.799738 209.82297 
L 125.62446 214.540584 
L 129.273905 219.435477 
L 131.098627 221.434799 
L 132.923349 223.621251 
L 134.748071 227.84642 
L 136.572793 232.652673 
L 138.397515 236.040688 
L 140.222237 237.104367 
L 143.871681 233.007233 
L 145.696403 237.458927 
L 147.521125 227.5805 
L 149.345847 225.65012 
L 151.170569 221.946941 
L 152.995291 222.380292 
L 154.820013 224.409161 
L 156.644735 222.616665 
L 158.469457 226.831985 
L 162.118901 232.692069 
L 163.943623 236.828598 
L 165.768345 237.301344 
L 167.593067 238.522606 
L 169.417789 236.789203 
L 171.242511 230.249547 
L 173.067233 231.746576 
L 174.891956 231.392017 
L 178.5414 231.549599 
L 180.366122 231.667785 
L 182.190844 230.367733 
L 185.840288 223.956113 
L 187.66501 222.931829 
L 189.489732 215.742147 
L 191.314454 218.686962 
L 193.139176 212.669297 
L 194.963898 215.7126 
L 196.78862 217.081595 
L 200.438064 205.765232 
L 202.262786 206.942173 
L 204.087508 205.371277 
L 205.91223 202.327973 
L 207.736952 200.629041 
L 209.561674 205.046264 
L 211.386396 195.620886 
L 213.211118 188.46075 
L 215.03584 188.037249 
L 216.860562 188.293319 
L 218.685284 192.094987 
L 220.510007 196.339854 
L 222.334729 195.660281 
L 224.159451 198.437665 
L 225.984173 197.748244 
L 227.808895 193.434435 
L 229.633617 184.826514 
L 231.458339 180.670287 
L 233.283061 181.714268 
L 235.107783 188.037249 
L 236.932505 190.125211 
L 238.757227 198.437665 
L 240.581949 208.483523 
L 242.406671 202.00296 
L 244.231393 202.689919 
L 246.056115 183.841626 
L 247.880837 177.538343 
L 249.705559 186.993267 
L 251.530281 188.72667 
L 253.355003 195.325419 
L 255.179725 209.005513 
L 257.004447 198.536154 
L 258.829169 179.842981 
L 260.653891 151.694883 
L 262.478613 138.300406 
L 264.303336 145.588577 
L 266.128058 160.164919 
L 267.95278 179.114164 
L 269.777502 195.226931 
L 271.602224 218.549078 
L 273.426946 210.581334 
L 275.251668 184.393163 
L 277.07639 178.286858 
L 278.901112 175.056425 
L 280.725834 191.730578 
L 282.550556 216.786128 
L 284.375278 236.789203 
L 286.2 234.977009 
L 288.024722 224.172788 
L 289.849444 211.23136 
L 291.674166 206.35124 
L 293.498888 222.124221 
L 295.32361 244.392538 
L 297.148332 282.606191 
L 298.973054 305.337405 
L 300.797776 295.173361 
L 302.622498 247.18962 
L 304.44722 227.639594 
L 306.271942 216.490662 
L 308.096664 221.927243 
L 309.921387 238.089255 
L 311.746109 251.483731 
L 313.570831 266.926774 
L 315.395553 281.266743 
L 317.220275 285.285086 
L 319.044997 283.394101 
L 320.869719 274.372527 
L 322.694441 268.305618 
L 324.519163 269.093528 
L 326.343885 280.793997 
L 329.993329 302.185763 
L 331.818051 302.343345 
L 333.642773 304.23433 
L 335.467495 306.755644 
L 337.292217 299.585659 
L 339.116939 300.452361 
L 340.941661 284.339594 
L 342.766383 287.88519 
L 344.591105 297.458301 
L 346.415827 303.840375 
L 348.240549 302.422137 
L 350.065271 304.23433 
L 351.889993 287.491235 
L 353.714716 272.166378 
L 355.539438 259.520417 
L 357.36416 251.365545 
L 359.188882 241.950016 
L 361.013604 234.386076 
L 362.838326 231.392017 
L 366.48777 222.183314 
L 368.312492 222.912131 
L 370.137214 227.422918 
L 371.961936 236.946785 
L 373.786658 239.743867 
L 375.61138 241.753038 
L 377.436102 236.789203 
L 381.085546 221.040844 
L 382.910268 214.767108 
L 384.73499 206.090245 
L 386.559712 199.486571 
L 388.384434 194.212496 
L 390.209156 186.914476 
L 392.033878 178.917186 
L 395.683322 166.271225 
L 397.508044 158.431516 
L 399.332767 149.331152 
L 402.982211 142.082376 
L 404.806933 136.882168 
L 406.631655 125.378676 
L 408.456377 123.487692 
L 410.281099 116.475289 
L 412.105821 111.826618 
L 413.930543 107.729484 
L 415.755265 105.838499 
L 417.579987 99.456425 
L 419.404709 94.335008 
L 421.229431 91.892486 
L 423.054153 86.613486 
L 424.878875 85.35283 
L 426.703597 80.231412 
L 428.528319 70.382533 
L 430.353041 63.448921 
L 432.177763 60.612444 
L 434.002485 59.666952 
L 435.827207 64.158041 
L 437.651929 76.528233 
L 443.126095 106.232454 
L 444.950818 110.093215 
L 446.77554 117.657155 
L 448.600262 119.942095 
L 450.424984 118.208692 
L 452.249706 120.414841 
L 454.074428 118.366274 
L 457.723872 117.814737 
L 459.548594 113.717603 
L 461.373316 112.614528 
L 463.198038 107.335529 
L 465.02276 106.941574 
L 466.847482 102.84444 
L 468.672204 102.84444 
L 470.496926 99.298843 
L 472.321648 95.438082 
L 474.14637 95.044127 
L 475.971092 96.77753 
L 477.795814 92.286441 
L 479.620536 91.104575 
L 483.26998 84.249755 
L 485.094702 80.467785 
L 486.919424 80.704158 
L 488.744147 81.807233 
L 490.568869 81.649651 
L 492.393591 85.904367 
L 494.218313 86.534695 
L 496.043035 88.740844 
L 497.867757 91.892486 
L 499.692479 93.783471 
L 501.517201 99.614007 
L 503.341923 102.292903 
L 505.166645 109.69926 
L 508.816089 126.560542 
L 510.640811 137.985242 
L 512.465533 148.0311 
L 514.290255 153.191912 
L 516.114977 155.713226 
L 517.939699 156.067785 
L 519.764421 158.431516 
L 521.589143 161.661949 
L 523.413865 166.507598 
L 525.238587 167.728859 
L 527.063309 169.30468 
L 528.888031 167.571277 
L 530.712753 161.543762 
L 532.537475 159.4558 
L 534.362198 154.452569 
L 536.18692 150.276644 
L 538.011642 148.267473 
L 539.836364 142.830891 
L 539.836364 142.830891 
" clip-path="url(#p775f6480b8)" style="fill: none; stroke: #ff7f0e; stroke-width: 1.5; stroke-linecap: square"/>
   </g>
   <g id="line2d_3">
    <path d="M 32.563636 198.930109 
L 34.388358 195.128442 
L 36.21308 185.732611 
L 38.037802 182.896133 
L 39.862525 182.265805 
L 41.687247 175.371589 
L 43.511969 201.599156 
L 45.336691 174.859448 
L 47.161413 180.946055 
L 48.986135 185.220469 
L 50.810857 187.347827 
L 52.635579 208.316092 
L 54.460301 199.841131 
L 56.285023 204.888682 
L 58.109745 213.939802 
L 59.934467 209.852517 
L 61.759189 208.24715 
L 63.583911 209.744179 
L 65.408633 208.207754 
L 67.233355 205.400823 
L 69.058077 204.012131 
L 70.882799 193.848088 
L 72.707521 190.194153 
L 74.532243 179.862678 
L 76.356965 181.832454 
L 78.181687 175.883731 
L 80.006409 171.156269 
L 81.831131 173.835164 
L 85.480576 173.87456 
L 87.305298 171.156269 
L 89.13002 172.988161 
L 90.954742 175.765545 
L 92.779464 174.032142 
L 94.604186 168.339489 
L 96.428908 165.95606 
L 98.25363 168.044023 
L 100.078352 161.780135 
L 101.903074 164.734799 
L 103.727796 166.034851 
L 105.552518 169.580448 
L 107.37724 175.80494 
L 109.201962 178.365649 
L 111.026684 182.620365 
L 112.851406 185.988682 
L 114.676128 194.478416 
L 116.50085 196.11333 
L 118.325572 200.643814 
L 120.150294 204.770495 
L 121.975016 208.611558 
L 123.799738 206.789515 
L 125.62446 207.331204 
L 127.449182 213.112496 
L 131.098627 213.939802 
L 132.923349 215.476227 
L 134.748071 217.702074 
L 136.572793 217.99754 
L 138.397515 219.277895 
L 140.222237 215.633809 
L 142.046959 215.988369 
L 143.871681 215.220156 
L 145.696403 212.048817 
L 147.521125 207.951683 
L 149.345847 204.888682 
L 151.170569 205.026566 
L 152.995291 204.957624 
L 154.820013 206.021303 
L 156.644735 203.165128 
L 158.469457 203.785607 
L 160.294179 207.006191 
L 162.118901 212.738239 
L 163.943623 217.426305 
L 165.768345 216.933861 
L 167.593067 215.929276 
L 169.417789 215.988369 
L 171.242511 209.340375 
L 173.067233 208.936571 
L 174.891956 211.832142 
L 176.716678 212.99431 
L 178.5414 218.214216 
L 180.366122 215.555018 
L 182.190844 208.316092 
L 184.015566 211.172267 
L 185.840288 203.568932 
L 187.66501 199.841131 
L 189.489732 198.08803 
L 191.314454 194.764033 
L 193.139176 205.25309 
L 194.963898 200.023335 
L 196.78862 203.352256 
L 198.613342 196.11333 
L 200.438064 193.56247 
L 202.262786 193.079875 
L 204.087508 191.218437 
L 205.91223 188.805461 
L 207.736952 190.529015 
L 209.561674 188.923648 
L 211.386396 179.547514 
L 213.211118 178.503533 
L 215.03584 180.177843 
L 216.860562 179.527817 
L 218.685284 179.547514 
L 220.510007 184.668932 
L 222.334729 190.164607 
L 224.159451 200.244935 
L 225.984173 185.634122 
L 227.808895 186.658405 
L 229.633617 184.747723 
L 231.458339 181.832454 
L 233.283061 180.059656 
L 235.107783 190.085816 
L 236.932505 187.751631 
L 238.757227 193.631412 
L 240.581949 196.261063 
L 242.406671 204.189411 
L 244.231393 192.459396 
L 246.056115 185.456842 
L 247.880837 182.344596 
L 249.705559 192.567733 
L 251.530281 188.667577 
L 253.355003 197.177009 
L 255.179725 209.596446 
L 257.004447 193.050328 
L 258.829169 180.768775 
L 260.653891 160.913434 
L 262.478613 155.713226 
L 264.303336 158.076957 
L 266.128058 176.1595 
L 267.95278 190.637353 
L 269.777502 213.585242 
L 271.602224 226.664554 
L 273.426946 216.185347 
L 275.251668 209.596446 
L 277.07639 203.972736 
L 278.901112 204.55382 
L 280.725834 230.328338 
L 282.550556 228.240375 
L 284.375278 246.972944 
L 286.2 244.175862 
L 288.024722 226.625159 
L 289.849444 218.765753 
L 291.674166 223.847775 
L 293.498888 236.296759 
L 297.148332 288.160959 
L 298.973054 324.72 
L 300.797776 306.598061 
L 302.622498 264.838812 
L 304.44722 233.972423 
L 306.271942 227.610047 
L 308.096664 233.972423 
L 309.921387 246.342616 
L 311.746109 256.486962 
L 313.570831 270.905722 
L 315.395553 276.578676 
L 317.220275 275.554393 
L 319.044997 274.845274 
L 320.869719 271.693632 
L 322.694441 268.069244 
L 324.519163 285.24569 
L 326.343885 294.700615 
L 328.168607 308.489046 
L 329.993329 315.895404 
L 331.818051 319.913747 
L 333.642773 320.228911 
L 335.467495 313.768046 
L 337.292217 312.822553 
L 339.116939 319.204627 
L 340.941661 300.767525 
L 342.766383 293.282376 
L 344.591105 298.718958 
L 346.415827 310.143658 
L 348.240549 305.573778 
L 350.065271 301.634226 
L 351.889993 297.221928 
L 353.714716 281.542512 
L 355.539438 269.408692 
L 357.36416 249.947306 
L 359.188882 232.23902 
L 361.013604 221.365857 
L 362.838326 215.633809 
L 364.663048 207.666066 
L 366.48777 204.268202 
L 368.312492 209.192642 
L 370.137214 219.179406 
L 371.961936 224.025055 
L 373.786658 227.688838 
L 375.61138 225.167525 
L 377.436102 222.015883 
L 379.260824 212.915518 
L 381.085546 208.6805 
L 382.910268 199.112314 
L 384.73499 187.387223 
L 386.559712 177.932298 
L 388.384434 170.900198 
L 390.209156 166.625784 
L 392.033878 158.076957 
L 395.683322 146.415883 
L 397.508044 136.960959 
L 401.157489 124.433184 
L 402.982211 123.645274 
L 404.806933 117.578364 
L 406.631655 110.408379 
L 408.456377 106.941574 
L 410.281099 98.116978 
L 412.105821 94.965336 
L 413.930543 93.153142 
L 415.755265 90.553038 
L 417.579987 90.631829 
L 419.404709 88.268098 
L 421.229431 90.001501 
L 423.054153 88.110516 
L 426.703597 80.86174 
L 428.528319 75.031204 
L 430.353041 68.491548 
L 432.177763 67.861219 
L 434.002485 68.097592 
L 435.827207 71.879562 
L 437.651929 85.431621 
L 439.476651 94.335008 
L 441.301373 107.335529 
L 443.126095 116.081334 
L 446.77554 127.584825 
L 448.600262 131.997124 
L 450.424984 129.554601 
L 452.249706 129.554601 
L 454.074428 126.481751 
L 455.89915 126.166587 
L 457.723872 123.4089 
L 459.548594 118.760229 
L 461.373316 116.948035 
L 463.198038 118.83902 
L 465.02276 117.2632 
L 466.847482 114.97826 
L 468.672204 114.97826 
L 470.496926 109.69926 
L 472.321648 108.123439 
L 474.14637 106.153663 
L 475.971092 102.84444 
L 477.795814 101.189828 
L 479.620536 101.504992 
L 481.445258 98.747306 
L 483.26998 100.953455 
L 485.094702 100.795873 
L 486.919424 99.06247 
L 488.744147 105.286962 
L 490.568869 104.262678 
L 492.393591 106.783992 
L 494.218313 111.353872 
L 496.043035 118.445065 
L 497.867757 123.802856 
L 499.692479 130.106139 
L 501.517201 132.154706 
L 503.341923 133.336571 
L 505.166645 140.033809 
L 506.991367 142.870287 
L 508.816089 149.015987 
L 510.640811 156.067785 
L 512.465533 166.428807 
L 514.290255 167.354601 
L 516.114977 167.768254 
L 517.939699 166.66518 
L 519.764421 171.747202 
L 521.589143 170.604732 
L 523.413865 176.356477 
L 525.238587 177.814112 
L 527.063309 178.424742 
L 528.888031 172.574508 
L 532.537475 158.116352 
L 534.362198 154.53136 
L 536.18692 151.340323 
L 538.011642 152.088838 
L 539.836364 148.622032 
L 539.836364 148.622032 
" clip-path="url(#p775f6480b8)" style="fill: none; stroke: #2ca02c; stroke-width: 1.5; stroke-linecap: square"/>
   </g>
   <g id="line2d_4">
    <path d="M 32.563636 193.444283 
L 34.388358 188.037249 
L 36.21308 181.635477 
L 38.037802 177.755018 
L 39.862525 177.558041 
L 41.687247 171.254758 
L 43.511969 180.158145 
L 45.336691 173.421511 
L 47.161413 176.139802 
L 50.810857 181.123335 
L 52.635579 197.117916 
L 54.460301 192.479093 
L 56.285023 199.077843 
L 58.109745 204.819739 
L 59.934467 204.681855 
L 61.759189 200.663512 
L 63.583911 204.681855 
L 65.408633 204.681855 
L 67.233355 196.911089 
L 69.058077 194.301136 
L 70.882799 186.599312 
L 72.707521 180.512705 
L 74.532243 172.180552 
L 76.356965 171.530526 
L 78.181687 166.428807 
L 80.006409 162.410464 
L 81.831131 163.001397 
L 83.655853 163.395352 
L 87.305298 161.622553 
L 89.13002 165.680292 
L 92.779464 163.592329 
L 94.604186 157.919375 
L 96.428908 154.688942 
L 98.25363 155.988994 
L 100.078352 154.88592 
L 103.727796 155.910203 
L 105.552518 162.331673 
L 107.37724 167.137926 
L 109.201962 170.368359 
L 111.026684 172.909369 
L 114.676128 185.043189 
L 116.50085 190.558562 
L 118.325572 194.744336 
L 120.150294 197.048973 
L 121.975016 203.480292 
L 123.799738 197.738395 
L 125.62446 200.830943 
L 127.449182 201.412027 
L 129.273905 204.859135 
L 131.098627 204.64246 
L 132.923349 204.64246 
L 134.748071 208.109265 
L 136.572793 208.936571 
L 138.397515 210.079041 
L 140.222237 208.601709 
L 142.046959 204.583366 
L 143.871681 201.244596 
L 145.696403 199.767264 
L 147.521125 196.093632 
L 149.345847 193.001084 
L 151.170569 192.272267 
L 152.995291 193.513226 
L 154.820013 195.709526 
L 156.644735 195.473153 
L 158.469457 193.926879 
L 160.294179 196.674716 
L 162.118901 200.496081 
L 163.943623 203.23407 
L 165.768345 204.721251 
L 167.593067 202.682533 
L 169.417789 202.928755 
L 171.242511 195.886806 
L 173.067233 197.807337 
L 174.891956 200.899885 
L 176.716678 202.446159 
L 178.5414 203.49999 
L 180.366122 203.23407 
L 182.190844 199.048296 
L 184.015566 199.905149 
L 185.840288 195.128442 
L 187.66501 191.267681 
L 189.489732 186.362939 
L 191.314454 187.426618 
L 193.139176 194.271589 
L 194.963898 193.276853 
L 196.78862 194.232194 
L 198.613342 188.490297 
L 200.438064 185.909891 
L 202.262786 184.117394 
L 204.087508 182.994622 
L 205.91223 180.788473 
L 207.736952 185.634122 
L 209.561674 180.788473 
L 211.386396 173.795769 
L 213.211118 174.524586 
L 215.03584 170.919896 
L 216.860562 172.397228 
L 218.685284 171.018385 
L 220.510007 177.518645 
L 222.334729 180.808171 
L 224.159451 188.529693 
L 225.984173 179.685399 
L 227.808895 179.724794 
L 229.633617 178.62172 
L 231.458339 174.583679 
L 233.283061 177.026201 
L 235.107783 180.847566 
L 236.932505 184.15679 
L 238.757227 185.968984 
L 240.581949 187.456165 
L 242.406671 192.094987 
L 244.231393 183.940115 
L 246.056115 182.364294 
L 247.880837 179.744492 
L 249.705559 189.622918 
L 251.530281 186.323544 
L 253.355003 191.169192 
L 255.179725 201.579458 
L 257.004447 192.173778 
L 258.829169 186.835685 
L 260.653891 170.8805 
L 262.478613 165.404523 
L 264.303336 163.789307 
L 266.128058 181.359708 
L 267.95278 196.605774 
L 269.777502 217.682376 
L 271.602224 228.496446 
L 273.426946 218.391496 
L 277.07639 211.221511 
L 278.901112 211.516978 
L 280.725834 227.984304 
L 282.550556 230.702595 
L 284.375278 241.851527 
L 286.2 241.378781 
L 288.024722 226.960021 
L 289.849444 224.911454 
L 291.674166 229.599521 
L 293.498888 243.506139 
L 297.148332 289.657989 
L 298.973054 323.695717 
L 300.797776 297.537092 
L 302.622498 268.305618 
L 304.44722 244.175862 
L 306.271942 233.420886 
L 308.096664 236.966483 
L 311.746109 255.935425 
L 313.570831 268.148035 
L 315.395553 273.584617 
L 317.220275 273.190662 
L 319.044997 269.645065 
L 320.869719 264.208484 
L 322.694441 266.729797 
L 324.519163 283.118332 
L 326.343885 292.336884 
L 328.168607 307.543554 
L 331.818051 321.331985 
L 333.642773 319.992538 
L 335.467495 314.713538 
L 337.292217 313.531673 
L 339.116939 319.834956 
L 340.941661 299.191704 
L 342.766383 296.749182 
L 346.415827 300.609943 
L 348.240549 299.428077 
L 350.065271 296.749182 
L 351.889993 288.476123 
L 353.714716 272.954289 
L 355.539438 261.450797 
L 357.36416 242.0879 
L 359.188882 226.644857 
L 361.013604 212.423075 
L 362.838326 206.710724 
L 364.663048 197.945221 
L 366.48777 193.542772 
L 368.312492 203.440896 
L 370.137214 209.468411 
L 371.961936 216.992955 
L 373.786658 214.511037 
L 375.61138 217.465701 
L 377.436102 209.862366 
L 379.260824 206.21828 
L 381.085546 195.571641 
L 382.910268 188.864554 
L 384.73499 180.808171 
L 386.559712 168.241001 
L 388.384434 161.110412 
L 390.209156 155.437457 
L 392.033878 145.03704 
L 393.8586 142.949078 
L 395.683322 134.991183 
L 397.508044 130.421303 
L 399.332767 120.572423 
L 401.157489 116.632871 
L 402.982211 114.347931 
L 404.806933 109.305305 
L 406.631655 102.84444 
L 408.456377 99.220052 
L 410.281099 92.601605 
L 412.105821 89.21359 
L 413.930543 88.031725 
L 415.755265 85.983158 
L 417.579987 84.880083 
L 419.404709 87.243814 
L 421.229431 85.589203 
L 423.054153 86.534695 
L 424.878875 82.122397 
L 426.703597 79.207129 
L 428.528319 73.061428 
L 430.353041 66.442981 
L 432.177763 66.600563 
L 434.002485 68.333966 
L 435.827207 72.588682 
L 437.651929 82.516352 
L 439.476651 94.335008 
L 441.301373 104.499052 
L 443.126095 112.378155 
L 444.950818 116.002543 
L 446.77554 121.202751 
L 448.600262 122.62099 
L 450.424984 122.148244 
L 452.249706 119.54814 
L 454.074428 119.232976 
L 455.89915 116.002543 
L 457.723872 114.111558 
L 459.548594 112.456946 
L 461.373316 109.068932 
L 463.198038 108.517394 
L 465.02276 109.147723 
L 466.847482 108.517394 
L 468.672204 106.783992 
L 470.496926 102.056529 
L 472.321648 100.007962 
L 474.14637 99.220052 
L 475.971092 96.383575 
L 477.795814 94.335008 
L 481.445258 94.335008 
L 483.26998 94.49259 
L 485.094702 90.946993 
L 488.744147 94.807754 
L 492.393591 100.638291 
L 494.218313 105.208171 
L 496.043035 111.117499 
L 497.867757 118.208692 
L 499.692479 121.754289 
L 501.517201 126.009005 
L 503.341923 127.348452 
L 505.166645 131.051631 
L 506.991367 135.385138 
L 508.816089 141.60963 
L 510.640811 144.840063 
L 512.465533 151.694883 
L 514.290255 153.270703 
L 516.114977 154.610151 
L 517.939699 155.082897 
L 519.764421 155.161688 
L 521.589143 159.337613 
L 525.238587 163.907493 
L 527.063309 161.464971 
L 528.888031 154.137405 
L 532.537475 140.270182 
L 534.362198 136.488213 
L 536.18692 133.336571 
L 538.011642 134.912392 
L 539.836364 138.142824 
L 539.836364 138.142824 
" clip-path="url(#p775f6480b8)" style="fill: none; stroke: #d62728; stroke-width: 1.5; stroke-linecap: square"/>
   </g>
   <g id="line2d_5">
    <path d="M 32.563636 177.104992 
L 34.388358 171.865388 
L 36.21308 162.410464 
L 38.037802 169.600146 
L 39.862525 160.519479 
L 43.511969 155.713226 
L 45.336691 164.459031 
L 47.161413 155.792017 
L 48.986135 151.143345 
L 50.810857 158.352725 
L 52.635579 174.800354 
L 54.460301 171.372944 
L 56.285023 172.298739 
L 58.109745 183.36888 
L 59.934467 186.638708 
L 61.759189 183.546159 
L 63.583911 192.922293 
L 65.408633 189.041834 
L 67.233355 189.465336 
L 69.058077 195.157989 
L 70.882799 188.20468 
L 72.707521 189.002439 
L 74.532243 184.077999 
L 76.356965 184.038603 
L 78.181687 186.284148 
L 80.006409 185.003794 
L 81.831131 187.781178 
L 83.655853 189.849442 
L 85.480576 188.933497 
L 87.305298 191.385868 
L 89.13002 189.967629 
L 90.954742 188.125888 
L 92.779464 185.397749 
L 94.604186 182.935529 
L 96.428908 180.059656 
L 98.25363 180.296029 
L 100.078352 176.986806 
L 101.903074 175.489776 
L 103.727796 175.410985 
L 105.552518 179.173257 
L 107.37724 183.782533 
L 109.201962 172.988161 
L 111.026684 168.181907 
L 112.851406 178.976279 
L 114.676128 179.05507 
L 116.50085 176.59285 
L 118.325572 180.059656 
L 120.150294 178.936884 
L 121.975016 174.977634 
L 123.799738 176.179197 
L 125.62446 180.433913 
L 127.449182 190.814633 
L 129.273905 195.423908 
L 131.098627 201.412027 
L 132.923349 203.559083 
L 134.748071 210.413903 
L 136.572793 212.521563 
L 140.222237 219.691548 
L 142.046959 219.218801 
L 143.871681 220.834018 
L 145.696403 220.952204 
L 147.521125 217.682376 
L 149.345847 217.56419 
L 151.170569 214.826201 
L 152.995291 218.233913 
L 154.820013 218.3521 
L 156.644735 215.909578 
L 158.469457 217.446003 
L 160.294179 219.809734 
L 162.118901 224.891756 
L 163.943623 218.194518 
L 165.768345 217.327817 
L 167.593067 220.203689 
L 169.417789 215.555018 
L 171.242511 205.60765 
L 173.067233 213.979197 
L 174.891956 209.015362 
L 176.716678 208.6805 
L 178.5414 207.262262 
L 180.366122 210.453299 
L 182.190844 201.963564 
L 184.015566 203.184825 
L 185.840288 199.028598 
L 187.66501 199.836206 
L 189.489732 198.181595 
L 191.314454 195.739072 
L 193.139176 199.619531 
L 194.963898 195.502699 
L 196.78862 186.658405 
L 200.438064 177.951996 
L 202.262786 182.127921 
L 204.087508 180.473309 
L 205.91223 182.206712 
L 207.736952 199.343762 
L 211.386396 169.875915 
L 213.211118 174.110933 
L 215.03584 173.52 
L 216.860562 179.370234 
L 218.685284 189.810047 
L 220.510007 175.98222 
L 222.334729 174.327608 
L 224.159451 177.223179 
L 225.984173 165.365128 
L 227.808895 158.352725 
L 229.633617 159.337613 
L 231.458339 149.882689 
L 233.283061 149.803898 
L 235.107783 159.613382 
L 236.932505 151.064554 
L 238.757227 160.125524 
L 240.581949 160.874039 
L 242.406671 163.198374 
L 246.056115 121.596707 
L 247.880837 117.341991 
L 249.705559 124.590766 
L 251.530281 134.124482 
L 253.355003 151.694883 
L 255.179725 159.258822 
L 257.004447 134.04569 
L 258.829169 89.449964 
L 260.653891 66.600563 
L 262.478613 60.454862 
L 264.303336 68.018801 
L 266.128058 85.825576 
L 267.95278 95.122918 
L 269.777502 111.353872 
L 271.602224 112.850902 
L 273.426946 91.49853 
L 275.251668 53.048504 
L 277.07639 63.448921 
L 278.901112 65.812652 
L 280.725834 98.432142 
L 282.550556 115.372215 
L 284.375278 129.633392 
L 286.2 126.639333 
L 288.024722 94.650172 
L 289.849444 80.310203 
L 291.674166 87.243814 
L 293.498888 112.614528 
L 295.32361 135.030578 
L 297.148332 149.725107 
L 298.973054 161.307389 
L 300.797776 136.645795 
L 302.622498 109.620469 
L 304.44722 65.65507 
L 306.271942 71.170443 
L 309.921387 118.129901 
L 311.746109 133.927504 
L 313.570831 140.664138 
L 315.395553 144.446107 
L 317.220275 145.667368 
L 319.044997 152.285816 
L 320.869719 150.040271 
L 322.694441 142.003585 
L 324.519163 150.552413 
L 326.343885 142.239958 
L 328.168607 144.564294 
L 329.993329 153.625263 
L 331.818051 152.797957 
L 333.642773 156.895091 
L 335.467495 153.231308 
L 337.292217 163.080188 
L 339.116939 161.307389 
L 340.941661 152.640375 
L 342.766383 157.17086 
L 344.591105 165.246941 
L 346.415827 199.383158 
L 348.240549 185.279562 
L 350.065271 186.638708 
L 351.889993 195.384513 
L 353.714716 185.693215 
L 355.539438 181.970339 
L 357.36416 184.117394 
L 359.188882 188.086493 
L 361.013604 191.504054 
L 362.838326 198.811923 
L 364.663048 200.525628 
L 366.48777 197.846733 
L 368.312492 203.795456 
L 370.137214 204.997019 
L 373.786658 191.346472 
L 375.61138 197.767942 
L 377.436102 195.995143 
L 379.260824 198.910412 
L 381.085546 200.958979 
L 382.910268 197.196707 
L 384.73499 198.871016 
L 386.559712 194.35038 
L 388.384434 194.271589 
L 390.209156 192.272267 
L 392.033878 188.736519 
L 393.8586 187.357676 
L 395.683322 183.664346 
L 397.508044 177.321668 
L 399.332767 171.530526 
L 401.157489 169.107702 
L 402.982211 165.246941 
L 404.806933 160.361897 
L 406.631655 151.813069 
L 408.456377 151.655487 
L 410.281099 145.549182 
L 412.105821 140.1126 
L 413.930543 137.03975 
L 415.755265 132.272892 
L 417.579987 128.293945 
L 419.404709 124.039229 
L 421.229431 124.90593 
L 424.878875 117.578364 
L 426.703597 109.462887 
L 428.528319 98.27456 
L 430.353041 90.71062 
L 432.177763 82.201188 
L 434.002485 80.310203 
L 435.827207 80.310203 
L 437.651929 90.868202 
L 439.476651 102.529276 
L 441.301373 108.281021 
L 443.126095 117.026826 
L 444.950818 120.808796 
L 446.77554 129.318228 
L 448.600262 136.724586 
L 450.424984 134.518437 
L 452.249706 136.567004 
L 454.074428 136.803377 
L 455.89915 135.779093 
L 457.723872 132.942616 
L 459.548594 133.021407 
L 461.373316 128.451527 
L 463.198038 128.412131 
L 465.02276 123.566483 
L 466.847482 122.305826 
L 468.672204 123.960438 
L 470.496926 119.863304 
L 472.321648 112.77211 
L 474.14637 113.796394 
L 475.971092 108.20223 
L 477.795814 103.868723 
L 479.620536 101.111037 
L 481.445258 96.147202 
L 483.26998 94.49259 
L 485.094702 91.971277 
L 486.919424 88.031725 
L 488.744147 90.71062 
L 490.568869 85.037665 
L 492.393591 86.14074 
L 494.218313 90.395456 
L 496.043035 91.183366 
L 497.867757 96.383575 
L 499.692479 98.668515 
L 501.517201 100.007962 
L 503.341923 99.692798 
L 505.166645 106.232454 
L 506.991367 111.353872 
L 508.816089 118.602647 
L 510.640811 126.639333 
L 512.465533 139.364085 
L 514.290255 142.082376 
L 516.114977 146.415883 
L 517.939699 146.809838 
L 519.764421 154.058614 
L 521.589143 156.895091 
L 523.413865 170.841105 
L 525.238587 170.250172 
L 527.063309 171.786597 
L 528.888031 169.225888 
L 530.712753 163.080188 
L 532.537475 159.022449 
L 534.362198 153.310099 
L 536.18692 148.149286 
L 538.011642 144.761271 
L 539.836364 141.018697 
L 539.836364 141.018697 
" clip-path="url(#p775f6480b8)" style="fill: none; stroke: #9467bd; stroke-width: 1.5; stroke-linecap: square"/>
   </g>
   <g id="line2d_6">
    <path d="M 32.563636 172.771485 
L 34.388358 167.748557 
L 36.21308 159.81036 
L 38.037802 169.088004 
L 39.862525 151.576696 
L 41.687247 152.010047 
L 43.511969 176.711037 
L 45.336691 153.349495 
L 47.161413 149.882689 
L 48.986135 148.188682 
L 50.810857 153.428286 
L 52.635579 171.609317 
L 54.460301 173.303325 
L 56.285023 174.110933 
L 58.109745 172.948765 
L 59.934467 174.288213 
L 61.759189 171.688108 
L 63.583911 178.011089 
L 65.408633 176.711037 
L 67.233355 178.050485 
L 69.058077 182.580969 
L 70.882799 178.424742 
L 72.707521 181.064242 
L 74.532243 174.780657 
L 76.356965 175.667056 
L 78.181687 177.538343 
L 80.006409 174.248817 
L 81.831131 178.424742 
L 83.655853 180.532402 
L 85.480576 181.990036 
L 87.305298 182.246107 
L 89.13002 180.946055 
L 90.954742 184.432559 
L 92.779464 179.271746 
L 94.604186 175.667056 
L 96.428908 173.480604 
L 98.25363 173.185138 
L 100.078352 170.466847 
L 101.903074 168.359187 
L 103.727796 163.474143 
L 105.552518 167.45309 
L 107.37724 168.713747 
L 109.201962 161.149807 
L 111.026684 155.792017 
L 112.851406 163.552934 
L 114.676128 169.895612 
L 116.50085 168.792538 
L 118.325572 171.491131 
L 120.150294 173.106347 
L 121.975016 163.67112 
L 123.799738 170.191079 
L 125.62446 172.653299 
L 127.449182 182.246107 
L 129.273905 190.204002 
L 131.098627 198.851318 
L 132.923349 197.275498 
L 134.748071 205.016717 
L 136.572793 208.660803 
L 138.397515 210.197228 
L 140.222237 212.718541 
L 142.046959 210.748765 
L 143.871681 214.767108 
L 145.696403 214.609526 
L 147.521125 207.557728 
L 149.345847 211.930631 
L 151.170569 209.094153 
L 154.820013 209.054758 
L 156.644735 204.701553 
L 158.469457 205.509161 
L 160.294179 205.016717 
L 162.118901 205.844023 
L 163.943623 207.124377 
L 165.768345 209.054758 
L 167.593067 212.206399 
L 169.417789 207.518332 
L 171.242511 195.75877 
L 173.067233 201.727191 
L 174.891956 201.116561 
L 176.716678 200.762001 
L 178.5414 196.822449 
L 180.366122 199.087692 
L 182.190844 193.040479 
L 185.840288 193.001084 
L 187.66501 191.54345 
L 189.489732 184.668932 
L 191.314454 182.443085 
L 193.139176 186.08717 
L 194.963898 180.689984 
L 196.78862 174.820052 
L 198.613342 175.214007 
L 200.438064 167.709161 
L 202.262786 172.141157 
L 204.087508 168.831933 
L 205.91223 174.248817 
L 207.736952 178.26716 
L 209.561674 180.72938 
L 211.386396 159.298218 
L 213.211118 164.262053 
L 215.03584 161.937718 
L 216.860562 169.501657 
L 218.685284 173.066952 
L 220.510007 166.940948 
L 222.334729 170.801709 
L 224.159451 169.048609 
L 225.984173 159.692173 
L 227.808895 153.940427 
L 229.633617 153.270703 
L 231.458339 141.924794 
L 233.283061 143.54001 
L 235.107783 160.795248 
L 236.932505 143.815779 
L 238.757227 149.764502 
L 240.581949 154.846524 
L 242.406671 154.846524 
L 244.231393 127.387848 
L 246.056115 111.669036 
L 247.880837 105.996081 
L 249.705559 114.663095 
L 251.530281 126.481751 
L 253.355003 129.04246 
L 255.179725 155.240479 
L 257.004447 117.026826 
L 260.653891 48.636206 
L 262.478613 46.981595 
L 264.303336 56.672892 
L 266.128058 85.431621 
L 267.95278 90.080292 
L 269.777502 109.462887 
L 271.602224 118.129901 
L 273.426946 88.031725 
L 275.251668 47.139177 
L 277.07639 63.212548 
L 278.901112 55.333445 
L 280.725834 90.474247 
L 282.550556 95.438082 
L 284.375278 121.439125 
L 286.2 118.523856 
L 288.024722 87.322606 
L 289.849444 66.600563 
L 291.674166 72.4311 
L 293.498888 97.801813 
L 295.32361 118.760229 
L 297.148332 132.233497 
L 298.973054 162.371068 
L 300.797776 118.287483 
L 302.622498 79.443502 
L 304.44722 56.988056 
L 306.271942 61.479145 
L 308.096664 82.831516 
L 309.921387 105.91729 
L 311.746109 124.590766 
L 313.570831 137.354914 
L 315.395553 138.457989 
L 317.220275 136.724586 
L 319.044997 144.761271 
L 320.869719 142.633913 
L 322.694441 138.103429 
L 324.519163 145.234018 
L 326.343885 127.89999 
L 328.168607 141.60963 
L 329.993329 147.67654 
L 331.818051 158.31333 
L 333.642773 154.452569 
L 335.467495 147.912913 
L 337.292217 160.204315 
L 339.116939 152.088838 
L 340.941661 150.591808 
L 342.766383 149.252361 
L 344.591105 162.489255 
L 346.415827 192.764711 
L 348.240549 191.385868 
L 350.065271 183.487066 
L 351.889993 195.404211 
L 353.714716 192.587431 
L 355.539438 183.447671 
L 357.36416 181.950641 
L 359.188882 189.100928 
L 361.013604 191.622241 
L 362.838326 199.166483 
L 364.663048 200.033184 
L 366.48777 198.930109 
L 368.312492 203.027243 
L 370.137214 204.937926 
L 371.961936 198.733132 
L 373.786658 191.247983 
L 375.61138 197.472475 
L 377.436102 198.319479 
L 379.260824 198.319479 
L 381.085546 199.225576 
L 382.910268 197.177009 
L 384.73499 194.301136 
L 386.559712 193.414737 
L 388.384434 193.769297 
L 390.209156 188.746368 
L 392.033878 187.446316 
L 393.8586 184.550745 
L 395.683322 180.453611 
L 397.508044 175.824638 
L 399.332767 168.753142 
L 401.157489 166.940948 
L 402.982211 160.440688 
L 404.806933 160.440688 
L 406.631655 150.079666 
L 408.456377 147.479562 
L 410.281099 142.712705 
L 412.105821 139.088317 
L 413.930543 135.779093 
L 415.755265 130.736467 
L 417.579987 126.718124 
L 419.404709 122.069453 
L 421.229431 122.305826 
L 423.054153 117.578364 
L 424.878875 113.953976 
L 428.528319 98.747306 
L 430.353041 85.825576 
L 432.177763 82.752725 
L 434.002485 78.261636 
L 435.827207 80.388994 
L 443.126095 115.135842 
L 444.950818 120.178468 
L 446.77554 129.04246 
L 448.600262 137.118541 
L 450.424984 139.088317 
L 452.249706 137.748869 
L 454.074428 137.985242 
L 455.89915 136.448817 
L 457.723872 131.681959 
L 459.548594 130.736467 
L 461.373316 126.639333 
L 463.198038 127.703012 
L 466.847482 125.221094 
L 468.672204 119.54814 
L 470.496926 118.287483 
L 472.321648 113.875185 
L 474.14637 108.674977 
L 475.971092 104.577843 
L 477.795814 102.529276 
L 479.620536 98.432142 
L 481.445258 94.019844 
L 483.26998 92.286441 
L 485.094702 89.449964 
L 486.919424 85.667994 
L 488.744147 85.983158 
L 490.568869 85.589203 
L 492.393591 86.92865 
L 494.218313 90.631829 
L 496.043035 93.70468 
L 497.867757 97.486649 
L 499.692479 100.165545 
L 501.517201 102.292903 
L 503.341923 102.84444 
L 505.166645 105.996081 
L 506.991367 108.517394 
L 508.816089 119.311767 
L 510.640811 126.481751 
L 512.465533 136.803377 
L 514.290255 138.615571 
L 516.114977 145.076436 
L 517.939699 147.243189 
L 519.764421 152.876748 
L 521.589143 160.874039 
L 523.413865 166.113643 
L 525.238587 167.413695 
L 527.063309 172.948765 
L 528.888031 166.231829 
L 530.712753 163.907493 
L 532.537475 154.53136 
L 534.362198 152.443398 
L 536.18692 142.39754 
L 538.011642 143.579406 
L 539.836364 139.797436 
L 539.836364 139.797436 
" clip-path="url(#p775f6480b8)" style="fill: none; stroke: #8c564b; stroke-width: 1.5; stroke-linecap: square"/>
   </g>
   <g id="line2d_7">
    <path d="M 32.563636 167.413695 
L 34.388358 160.519479 
L 36.21308 152.561584 
L 38.037802 152.285816 
L 39.862525 146.061324 
L 41.687247 141.767212 
L 43.511969 166.113643 
L 45.336691 144.485503 
L 47.161413 143.146055 
L 48.986135 149.685711 
L 50.810857 152.010047 
L 52.635579 167.374299 
L 54.460301 166.428807 
L 56.285023 169.147097 
L 58.109745 176.809526 
L 59.934467 171.392642 
L 61.759189 171.806295 
L 63.583911 176.848921 
L 65.408633 174.110933 
L 67.233355 171.136571 
L 69.058077 171.432038 
L 70.882799 163.158979 
L 72.707521 158.864867 
L 74.532243 149.291756 
L 76.356965 149.567525 
L 78.181687 151.143345 
L 80.006409 146.967421 
L 81.831131 147.440167 
L 83.655853 151.497905 
L 85.480576 150.119062 
L 87.305298 151.497905 
L 89.13002 149.646316 
L 90.954742 154.846524 
L 92.779464 149.725107 
L 94.604186 148.228077 
L 96.428908 143.343033 
L 98.25363 142.949078 
L 100.078352 139.009526 
L 103.727796 144.052152 
L 105.552518 144.485503 
L 107.37724 153.861636 
L 109.201962 148.425055 
L 111.026684 150.670599 
L 112.851406 157.052673 
L 114.676128 165.16815 
L 116.50085 168.753142 
L 118.325572 174.110933 
L 120.150294 176.888317 
L 121.975016 174.150328 
L 123.799738 175.923127 
L 125.62446 175.962522 
L 127.449182 182.65976 
L 129.273905 190.322189 
L 131.098627 192.134382 
L 132.923349 194.163252 
L 134.748071 195.14814 
L 136.572793 201.412027 
L 138.397515 201.569609 
L 140.222237 200.584721 
L 142.046959 199.875602 
L 145.696403 193.316248 
L 147.521125 188.037249 
L 149.345847 187.347827 
L 151.170569 183.703742 
L 152.995291 185.870495 
L 154.820013 187.052361 
L 156.644735 186.599312 
L 158.469457 186.343241 
L 160.294179 190.775237 
L 162.118901 192.607129 
L 163.943623 195.325419 
L 165.768345 195.266326 
L 167.593067 193.079875 
L 169.417789 194.163252 
L 171.242511 186.165961 
L 173.067233 186.126566 
L 174.891956 190.617655 
L 176.716678 193.158666 
L 178.5414 192.8632 
L 180.366122 192.016196 
L 182.190844 186.244752 
L 185.840288 179.429328 
L 187.66501 173.323022 
L 189.489732 169.265284 
L 191.314454 168.753142 
L 193.139176 175.80494 
L 194.963898 168.339489 
L 196.78862 166.507598 
L 198.613342 160.637665 
L 200.438064 162.646837 
L 202.262786 157.249651 
L 204.087508 156.776905 
L 205.91223 155.240479 
L 207.736952 160.283106 
L 209.561674 155.476853 
L 211.386396 149.015987 
L 213.211118 150.473622 
L 215.03584 146.17951 
L 216.860562 151.182741 
L 218.685284 152.561584 
L 220.510007 154.491965 
L 222.334729 156.855696 
L 224.159451 175.01703 
L 225.984173 151.182741 
L 227.808895 149.409943 
L 229.633617 148.070495 
L 231.458339 145.352204 
L 233.283061 146.258301 
L 235.107783 154.216196 
L 236.932505 152.24642 
L 238.757227 156.225367 
L 240.581949 154.413174 
L 242.406671 165.443919 
L 244.231393 145.785555 
L 246.056115 144.012757 
L 247.880837 134.794205 
L 249.705559 142.712705 
L 251.530281 145.430995 
L 253.355003 150.434226 
L 255.179725 172.73209 
L 257.004447 149.134174 
L 258.829169 121.911871 
L 260.653891 91.656113 
L 262.478613 88.110516 
L 264.303336 91.656113 
L 266.128058 118.05111 
L 267.95278 138.379197 
L 269.777502 165.246941 
L 271.602224 167.374299 
L 273.426946 142.949078 
L 275.251668 132.627452 
L 277.07639 127.742408 
L 278.901112 133.218385 
L 280.725834 161.977113 
L 282.550556 163.946889 
L 284.375278 181.970339 
L 286.2 178.405044 
L 288.024722 152.719166 
L 289.849444 142.515727 
L 291.674166 154.452569 
L 293.498888 172.456321 
L 295.32361 206.139489 
L 297.148332 229.501032 
L 298.973054 270.472371 
L 300.797776 215.7126 
L 302.622498 179.429328 
L 304.44722 147.834122 
L 306.271942 144.367316 
L 308.096664 162.055904 
L 309.921387 186.126566 
L 311.746109 203.381803 
L 313.570831 219.455175 
L 315.395553 229.934382 
L 317.220275 225.679666 
L 320.869719 215.476227 
L 322.694441 219.376384 
L 324.519163 235.607337 
L 326.343885 241.792434 
L 328.168607 251.562522 
L 329.993329 259.047671 
L 331.818051 262.199312 
L 333.642773 258.023387 
L 335.467495 251.956477 
L 337.292217 257.314268 
L 339.116939 253.611089 
L 340.941661 236.19827 
L 342.766383 232.534487 
L 344.591105 243.210672 
L 346.415827 258.811298 
L 348.240549 252.035268 
L 350.065271 249.750328 
L 351.889993 252.508015 
L 353.714716 226.743345 
L 355.539438 232.495091 
L 357.36416 204.445482 
L 359.188882 194.892069 
L 361.013604 184.432559 
L 362.838326 182.22641 
L 364.663048 175.01703 
L 366.48777 176.257989 
L 370.137214 195.404211 
L 371.961936 196.172423 
L 373.786658 192.567733 
L 375.61138 191.169192 
L 377.436102 190.026722 
L 379.260824 186.165961 
L 381.085546 177.9126 
L 382.910268 173.500302 
L 384.73499 166.271225 
L 386.559712 157.879979 
L 388.384434 151.10395 
L 390.209156 147.282585 
L 392.033878 137.82766 
L 393.8586 134.242668 
L 395.683322 125.693841 
L 397.508044 119.075393 
L 399.332767 108.20223 
L 401.157489 104.105096 
L 402.982211 105.91729 
L 404.806933 96.225993 
L 406.631655 88.031725 
L 408.456377 86.613486 
L 410.281099 79.207129 
L 412.105821 74.479666 
L 413.930543 71.958353 
L 415.755265 68.491548 
L 417.579987 66.758145 
L 419.404709 65.339906 
L 421.229431 65.497488 
L 423.054153 60.454862 
L 424.878875 59.666952 
L 426.703597 54.309161 
L 428.528319 47.217968 
L 430.353041 36.344805 
L 432.177763 34.45382 
L 434.002485 34.45382 
L 435.827207 39.654028 
L 437.651929 52.73334 
L 439.476651 62.976175 
L 441.301373 75.740323 
L 443.126095 85.746785 
L 444.950818 87.401397 
L 446.77554 98.116978 
L 448.600262 103.080813 
L 450.424984 105.838499 
L 452.249706 98.747306 
L 454.074428 97.959396 
L 455.89915 97.644231 
L 457.723872 93.783471 
L 459.548594 91.813695 
L 461.373316 87.322606 
L 463.198038 86.692277 
L 465.02276 85.195248 
L 466.847482 83.540636 
L 468.672204 80.546576 
L 470.496926 79.364711 
L 472.321648 73.061428 
L 474.14637 72.588682 
L 475.971092 68.806712 
L 477.795814 65.497488 
L 481.445258 60.927608 
L 483.26998 60.770026 
L 485.094702 57.775967 
L 486.919424 56.357728 
L 488.744147 62.503429 
L 490.568869 61.242772 
L 492.393591 66.758145 
L 494.218313 71.485607 
L 496.043035 78.419218 
L 497.867757 82.279979 
L 499.692479 88.583262 
L 501.517201 91.025784 
L 503.341923 93.074351 
L 505.166645 98.589724 
L 506.991367 104.893007 
L 510.640811 115.76617 
L 512.465533 127.821199 
L 514.290255 132.233497 
L 516.114977 132.036519 
L 517.939699 131.209213 
L 519.764421 135.818489 
L 521.589143 139.009526 
L 523.413865 145.785555 
L 525.238587 147.125003 
L 527.063309 147.597749 
L 528.888031 140.309578 
L 530.712753 132.46987 
L 532.537475 125.536258 
L 534.362198 116.55408 
L 536.18692 114.032767 
L 538.011642 113.166066 
L 539.836364 111.826618 
L 539.836364 111.826618 
" clip-path="url(#p775f6480b8)" style="fill: none; stroke: #e377c2; stroke-width: 1.5; stroke-linecap: square"/>
   </g>
   <g id="line2d_8">
    <path d="M 32.563636 160.283106 
L 34.388358 155.437457 
L 36.21308 146.849234 
L 38.037802 159.770964 
L 39.862525 137.03975 
L 41.687247 130.775862 
L 43.511969 154.570756 
L 45.336691 131.839541 
L 47.161413 136.488213 
L 48.986135 136.567004 
L 50.810857 141.530839 
L 52.635579 169.265284 
L 54.460301 152.994935 
L 56.285023 159.770964 
L 58.109745 171.786597 
L 59.934467 170.70322 
L 61.759189 167.965232 
L 63.583911 172.160855 
L 65.408633 171.904784 
L 69.058077 167.847045 
L 70.882799 158.392121 
L 72.707521 156.304158 
L 74.532243 148.503846 
L 76.356965 148.109891 
L 78.181687 148.503846 
L 80.006409 141.530839 
L 81.831131 145.470391 
L 83.655853 144.209734 
L 85.480576 144.24913 
L 87.305298 140.782324 
L 89.13002 147.243189 
L 90.954742 149.60692 
L 94.604186 137.591287 
L 96.428908 135.857884 
L 98.25363 135.54272 
L 100.078352 130.854653 
L 101.903074 131.918332 
L 103.727796 131.445586 
L 105.552518 135.700302 
L 107.37724 146.061324 
L 109.201962 141.924794 
L 111.026684 143.027869 
L 112.851406 150.709995 
L 114.676128 157.210255 
L 116.50085 157.683002 
L 118.325572 159.770964 
L 120.150294 162.292277 
L 121.975016 161.071016 
L 125.62446 167.059135 
L 127.449182 174.327608 
L 129.273905 179.035373 
L 131.098627 181.005149 
L 132.923349 182.344596 
L 134.748071 186.540219 
L 136.572793 187.387223 
L 138.397515 190.716144 
L 140.222237 190.322189 
L 142.046959 190.794935 
L 143.871681 190.440375 
L 145.696403 188.588786 
L 147.521125 183.467368 
L 149.345847 179.252048 
L 151.170569 180.039958 
L 152.995291 180.453611 
L 154.820013 182.620365 
L 158.469457 181.655175 
L 160.294179 182.915831 
L 162.118901 187.012965 
L 165.768345 189.120625 
L 167.593067 189.908536 
L 169.417789 188.234226 
L 171.242511 179.803585 
L 173.067233 182.462783 
L 174.891956 184.274977 
L 176.716678 186.97357 
L 178.5414 187.859969 
L 180.366122 186.08717 
L 182.190844 177.715623 
L 184.015566 177.47925 
L 185.840288 175.942824 
L 187.66501 169.73803 
L 189.489732 165.325732 
L 191.314454 163.828702 
L 193.139176 169.009213 
L 194.963898 167.157624 
L 196.78862 166.783366 
L 198.613342 156.264763 
L 200.438064 153.467681 
L 202.262786 156.264763 
L 204.087508 152.207024 
L 205.91223 152.837353 
L 207.736952 155.67383 
L 209.561674 153.861636 
L 211.386396 142.161167 
L 213.211118 140.861115 
L 215.03584 141.452048 
L 218.685284 147.794726 
L 222.334729 153.113121 
L 224.159451 149.803898 
L 225.984173 141.688421 
L 227.808895 138.733757 
L 229.633617 140.861115 
L 231.458339 130.736467 
L 233.283061 133.651735 
L 235.107783 155.831412 
L 236.932505 145.509786 
L 238.757227 150.434226 
L 240.581949 151.300928 
L 242.406671 158.943658 
L 244.231393 140.1126 
L 247.880837 122.857363 
L 249.705559 133.178989 
L 251.530281 134.912392 
L 253.355003 150.079666 
L 255.179725 158.983054 
L 257.004447 133.25778 
L 258.829169 109.147723 
L 260.653891 79.679875 
L 262.478613 75.740323 
L 264.303336 81.413278 
L 266.128058 107.729484 
L 267.95278 119.863304 
L 269.777502 151.694883 
L 271.602224 155.792017 
L 273.426946 144.958249 
L 275.251668 116.711662 
L 277.07639 123.960438 
L 278.901112 113.560021 
L 280.725834 147.715935 
L 282.550556 154.925315 
L 284.375278 174.820052 
L 286.2 172.869974 
L 288.024722 140.427764 
L 289.849444 130.342512 
L 291.674166 143.579406 
L 293.498888 160.59827 
L 295.32361 194.478416 
L 297.148332 222.173465 
L 298.973054 257.82641 
L 300.797776 223.985659 
L 302.622498 175.745847 
L 304.44722 139.758041 
L 306.271942 132.46987 
L 308.096664 152.443398 
L 309.921387 175.214007 
L 311.746109 190.322189 
L 313.570831 208.424429 
L 315.395553 221.267368 
L 317.220275 213.900406 
L 319.044997 212.127608 
L 320.869719 212.915518 
L 322.694441 209.803273 
L 324.519163 222.212861 
L 326.343885 233.55877 
L 328.168607 249.238187 
L 329.993329 246.322918 
L 331.818051 248.529067 
L 333.642773 247.97753 
L 335.467495 243.880396 
L 337.292217 251.444336 
L 339.116939 249.159396 
L 340.941661 227.097905 
L 342.766383 224.261428 
L 344.591105 232.298114 
L 346.415827 262.553872 
L 348.240549 247.268411 
L 350.065271 242.068202 
L 351.889993 243.722814 
L 353.714716 227.767629 
L 355.539438 215.003481 
L 357.36416 196.684565 
L 359.188882 190.125211 
L 361.013604 181.576384 
L 362.838326 181.182428 
L 364.663048 172.02297 
L 366.48777 170.782011 
L 368.312492 180.039958 
L 370.137214 185.614424 
L 371.961936 192.666222 
L 373.786658 186.422032 
L 375.61138 186.776592 
L 379.260824 181.182428 
L 381.085546 177.183783 
L 382.910268 166.546993 
L 384.73499 161.543762 
L 386.559712 153.38889 
L 388.384434 147.085607 
L 390.209156 142.003585 
L 392.033878 134.085086 
L 393.8586 131.524377 
L 395.683322 124.590766 
L 397.508044 116.081334 
L 399.332767 103.395977 
L 401.157489 100.638291 
L 402.982211 98.116978 
L 404.806933 91.734904 
L 406.631655 83.304263 
L 408.456377 80.231412 
L 410.281099 74.164502 
L 412.105821 69.121876 
L 413.930543 66.206608 
L 415.755265 62.58222 
L 417.579987 62.503429 
L 419.404709 59.824534 
L 421.229431 59.824534 
L 423.054153 56.200146 
L 424.878875 51.15752 
L 426.703597 44.539072 
L 428.528319 35.872058 
L 430.353041 28.150537 
L 432.177763 25.471641 
L 434.002485 22.32 
L 435.827207 30.514268 
L 437.651929 42.80567 
L 439.476651 54.072788 
L 443.126095 75.188786 
L 444.950818 79.837457 
L 446.77554 89.607546 
L 448.600262 92.286441 
L 450.424984 92.128859 
L 452.249706 91.656113 
L 454.074428 91.971277 
L 455.89915 86.92865 
L 457.723872 84.564919 
L 459.548594 83.777009 
L 461.373316 79.916248 
L 463.198038 79.522293 
L 465.02276 74.00692 
L 466.847482 74.71604 
L 468.672204 73.849338 
L 470.496926 68.885503 
L 472.321648 67.1521 
L 474.14637 62.503429 
L 475.971092 62.345847 
L 477.795814 60.060907 
L 481.445258 53.600042 
L 483.26998 52.575758 
L 485.094702 46.824013 
L 486.919424 46.114893 
L 488.744147 52.103012 
L 490.568869 51.630266 
L 492.393591 56.357728 
L 494.218313 58.406295 
L 497.867757 69.673413 
L 499.692479 74.952413 
L 501.517201 77.473726 
L 503.341923 80.940532 
L 505.166645 85.35283 
L 508.816089 100.244336 
L 510.640811 105.680917 
L 512.465533 118.602647 
L 514.290255 121.12396 
L 516.114977 125.063512 
L 517.939699 124.90593 
L 521.589143 132.863825 
L 523.413865 138.457989 
L 525.238587 139.758041 
L 527.063309 138.221615 
L 528.888031 135.227556 
L 530.712753 129.318228 
L 532.537475 119.863304 
L 534.362198 113.560021 
L 536.18692 108.438603 
L 538.011642 111.275081 
L 539.836364 108.438603 
L 539.836364 108.438603 
" clip-path="url(#p775f6480b8)" style="fill: none; stroke: #7f7f7f; stroke-width: 1.5; stroke-linecap: square"/>
   </g>
  </g>
 </g>
 <defs>
  <clipPath id="p775f6480b8">
   <rect x="7.2" y="7.2" width="558" height="332.64"/>
  </clipPath>
 </defs>
</svg>
